<svg width="143" height="190" viewBox="0 0 143 190" fill="none" xmlns="http://www.w3.org/2000/svg">
<path d="M8.90625 190H133.594C138.504 190 142.5 186.004 142.5 181.094V56.4062C142.5 56.3053 142.452 56.2222 142.447 56.1272C142.435 55.9906 142.399 55.8719 142.369 55.7412C142.276 55.3288 142.094 54.9417 141.835 54.6072C141.793 54.5537 141.799 54.4884 141.758 54.435L94.2578 0.9975C94.24 0.979687 94.2162 0.979688 94.1984 0.961875C93.8361 0.583124 93.3789 0.308388 92.8744 0.16625C92.7616 0.130625 92.6606 0.11875 92.5419 0.100938C92.3697 0.07125 92.2094 0 92.0312 0H8.90625C3.99594 0 0 3.99594 0 8.90625V181.094C0 186.004 3.99594 190 8.90625 190ZM95 10.7766L132.923 53.4375H97.9688C96.6625 53.4375 95 50.9438 95 48.9844V10.7766ZM5.9375 8.90625C5.9375 8.11889 6.25028 7.36378 6.80703 6.80703C7.36378 6.25028 8.11889 5.9375 8.90625 5.9375H89.0625V48.9844C89.0625 53.7878 92.9516 59.375 97.9688 59.375H136.562V181.094C136.562 181.881 136.25 182.636 135.693 183.193C135.136 183.75 134.381 184.062 133.594 184.062H8.90625C7.24375 184.062 5.9375 182.756 5.9375 181.094V8.90625Z" fill="#3E4189"/>
<path d="M32.6562 83.125H109.844C110.631 83.125 111.386 82.8122 111.943 82.2555C112.5 81.6987 112.812 80.9436 112.812 80.1562C112.812 79.3689 112.5 78.6138 111.943 78.057C111.386 77.5003 110.631 77.1875 109.844 77.1875H32.6562C31.8689 77.1875 31.1138 77.5003 30.557 78.057C30.0003 78.6138 29.6875 79.3689 29.6875 80.1562C29.6875 80.9436 30.0003 81.6987 30.557 82.2555C31.1138 82.8122 31.8689 83.125 32.6562 83.125V83.125Z" fill="#3E4189"/>
<path d="M32.6562 106.875H109.844C110.631 106.875 111.386 106.562 111.943 106.005C112.5 105.449 112.812 104.694 112.812 103.906C112.812 103.119 112.5 102.364 111.943 101.807C111.386 101.25 110.631 100.938 109.844 100.938H32.6562C31.8689 100.938 31.1138 101.25 30.557 101.807C30.0003 102.364 29.6875 103.119 29.6875 103.906C29.6875 104.694 30.0003 105.449 30.557 106.005C31.1138 106.562 31.8689 106.875 32.6562 106.875V106.875Z" fill="#3E4189"/>
<path d="M32.6562 59.375H68.2812C69.0686 59.375 69.8237 59.0622 70.3805 58.5055C70.9372 57.9487 71.25 57.1936 71.25 56.4062C71.25 55.6189 70.9372 54.8638 70.3805 54.307C69.8237 53.7503 69.0686 53.4375 68.2812 53.4375H32.6562C31.8689 53.4375 31.1138 53.7503 30.557 54.307C30.0003 54.8638 29.6875 55.6189 29.6875 56.4062C29.6875 57.1936 30.0003 57.9487 30.557 58.5055C31.1138 59.0622 31.8689 59.375 32.6562 59.375V59.375Z" fill="#3E4189"/>
<path d="M32.6562 130.625H109.844C110.631 130.625 111.386 130.312 111.943 129.755C112.5 129.199 112.812 128.444 112.812 127.656C112.812 126.869 112.5 126.114 111.943 125.557C111.386 125 110.631 124.688 109.844 124.688H32.6562C31.8689 124.688 31.1138 125 30.557 125.557C30.0003 126.114 29.6875 126.869 29.6875 127.656C29.6875 128.444 30.0003 129.199 30.557 129.755C31.1138 130.312 31.8689 130.625 32.6562 130.625V130.625Z" fill="#3E4189"/>
<path d="M32.6562 154.375H109.844C110.631 154.375 111.386 154.062 111.943 153.505C112.5 152.949 112.812 152.194 112.812 151.406C112.812 150.619 112.5 149.864 111.943 149.307C111.386 148.75 110.631 148.438 109.844 148.438H32.6562C31.8689 148.438 31.1138 148.75 30.557 149.307C30.0003 149.864 29.6875 150.619 29.6875 151.406C29.6875 152.194 30.0003 152.949 30.557 153.505C31.1138 154.062 31.8689 154.375 32.6562 154.375V154.375Z" fill="#3E4189"/>
</svg>
