<?xml version="1.0" standalone="no"?><!-- Generator: Gravit.io --><svg xmlns="http://www.w3.org/2000/svg" xmlns:xlink="http://www.w3.org/1999/xlink" style="isolation:isolate" viewBox="145.276 7.5 269.448 279.018" width="269.448" height="279.018"><g><path d=" M 345.70552 7.5 L 346.62577 8.05215 C 346.71358 10.31326 346.45587 12.75674 345.15337 14.67791 L 345.15337 14.67791 L 341.10429 31.61043 Q 361.53293 41.73394 376.44172 57.3773 Q 413.36468 90.20894 414.72393 158.60429 Q 411.46799 198.04774 394.11043 223.38957 Q 389.35131 231.14579 383.43558 237.7454 Q 378.6273 239.01074 379.3865 245.84356 Q 380.4908 246.57975 379.7546 249.15644 L 379.7546 259.09509 Q 379.56442 261.84969 378.09816 263.32822 Q 372.3285 270.0739 361.53374 271.79448 Q 358.17833 270.73272 356.19632 268.29755 Q 354.78089 266.76819 354.90798 263.69632 Q 325.212 286.63838 272.08589 286.15031 Q 242.42169 283.78996 221.28834 272.89877 L 217.97546 276.57975 Q 215.31595 279.99387 208.40491 279.15644 Q 205.87239 275.79939 199.57055 276.21166 Q 195.9816 276.11963 194.23313 274.18712 Q 189.22748 267.78172 187.97546 257.6227 Q 187.50648 246.68064 180.6135 242.16258 Q 173.0946 234.58945 167.36196 225.23006 Q 145.88847 196.82626 145.27607 147.56135 Q 151.14347 82.93795 190 51.30368 Q 222.84428 17.33815 289.3865 17.07055 Q 304.40386 18.24951 316.99387 21.85583 L 345.70552 7.5 Z " fill="rgb(62,66,137)"/><path d=" M 343.86503 10.44479 L 344.41718 10.62883 L 335.58282 46.70245 Q 334.84501 51.67016 333.00613 55.53681 Q 333.65031 58.02147 332.45399 58.66564 L 321.22699 66.94785 C 319.39865 70.63404 315.19049 69.91636 311.84049 69.70859 C 310.70203 69.63798 309.46181 69.9243 308.71166 68.78834 L 308.71166 68.78834 L 307.23926 66.94785 Q 310.3865 65.12577 310.55215 60.32209 Q 308.72393 56.81288 302.26994 57.92945 Q 294.26845 59.86661 289.57055 65.10736 Q 286.56665 68.91327 285.33742 74.49387 L 283.12883 74.86196 C 282.5252 73.9134 281.06013 74.24856 280.18405 74.49387 L 280.18405 74.49387 L 277.60736 77.43865 L 277.05521 77.6227 C 267.68239 85.80057 259.1666 94.94684 251.65644 104.86196 L 251.65644 104.86196 L 252.57669 105.04601 L 261.41104 95.84356 C 263.76656 93.7726 267.35346 93.92558 270.2454 94.37117 L 270.2454 94.37117 L 271.53374 96.39571 C 266.06426 101.19175 261.42169 106.8803 257.73006 113.14417 L 257.73006 113.14417 L 253.31288 107.6227 C 252.21905 108.21169 252.50971 109.78328 252.76074 110.75153 L 252.76074 110.75153 L 255.33742 114.43252 L 256.07362 116.27301 L 251.10429 126.7638 L 248.34356 119.21779 Q 249.20245 117.8681 252.02454 118.4816 Q 251.1468 114.02191 248.15951 111.67178 Q 245.25416 110.89614 243.92638 108.54294 L 240.2454 103.02147 L 241.90184 102.10123 C 242.90659 104.5092 245.34155 105.37829 247.79141 105.41411 L 247.79141 105.41411 L 255.33742 98.2362 L 263.06748 89.40184 L 260.30675 88.1135 L 256.62577 94.00307 L 256.44172 85.72086 L 273.19018 66.39571 L 274.84663 65.47546 L 275.76687 63.81902 C 277.24855 63.97382 279.05133 63.85881 280 62.53067 L 280 62.53067 L 304.84663 29.95399 L 343.86503 10.44479 Z " fill="rgb(253,253,253)"/><path d=" M 275.39877 16.70245 L 284.78528 16.8865 L 275.39877 17.07055 L 275.39877 16.70245 Z " fill="rgb(61,64,136)"/><path d=" M 284.96933 16.70245 L 288.09816 16.8865 L 284.96933 17.07055 L 284.96933 16.70245 Z " fill="rgb(60,63,136)"/><line x1="336.13497" y1="17.43865" x2="332.45399" y2="21.48773"/><path d=" M 336.50307 17.43865 L 337.79141 18.3589 L 326.74847 28.66564 L 327.11656 30.87423 C 326.04406 33.17041 323.85035 34.38738 321.41104 34.73926 L 321.41104 34.73926 L 320.8589 33.81902 L 336.50307 17.43865 Z " fill="rgb(62,66,137)"/><path d=" M 273.92638 19.64724 L 286.25767 19.83129 L 273.92638 20.01534 L 273.92638 19.64724 Z " fill="rgb(166,167,200)"/><path d=" M 270.9816 20.01534 Q 294.91214 18.72283 312.39264 23.88037 Q 306.4766 25.87844 302.45399 29.76994 L 277.97546 61.61043 C 276.49076 61.51042 274.77406 61.69302 273.74233 62.89877 L 273.74233 62.89877 L 272.82209 64.55521 L 269.69325 66.94785 L 265.09202 72.65337 Q 225.66078 80.15465 204.17178 105.59816 Q 179.08832 130.02391 178.03681 178.4816 Q 179.2129 197.1828 185.03067 211.24233 Q 181.04114 213.32642 180.9816 219.34049 Q 184.20245 223.1135 183.92638 230.38344 Q 182.66433 232.25022 183.19018 235.90491 Q 184.82033 237.21954 183.92638 241.05828 L 180.9816 238.4816 Q 150.40778 207.76706 148.22086 148.66564 Q 153.31528 86.58215 189.6319 55.72086 Q 218.47789 26.03924 270.9816 20.01534 Z " fill="rgb(253,253,253)"/><path d=" M 335.39877 20.38344 L 333.19018 22.96012 L 335.39877 20.38344 Z  M 328.77301 25.16871 L 326.19632 28.1135 L 328.77301 25.16871 Z  M 329.8773 25.53681 L 327.11656 28.66564 L 327.48466 30.50613 L 327.11656 30.50613 L 326.74847 28.66564 L 329.8773 25.53681 Z  M 323.25153 31.05828 L 321.77914 32.89877 L 323.25153 31.05828 Z  M 326.93252 31.05828 L 325.09202 33.26687 L 326.93252 31.05828 Z " fill-rule="evenodd" fill="rgb(166,167,200)"/><path d=" M 313.68098 33.26687 L 313.49693 33.81902 L 311.10429 37.31595 L 309.6319 37.68405 L 313.68098 33.26687 Z  M 248.15951 34.73926 Q 254.66537 34.49108 256.80982 38.60429 Q 262.01949 45.17376 261.96319 57.0092 Q 261.13497 61.70245 257.73006 63.81902 Q 252.30297 66.49009 245.21472 67.5 L 236.93252 39.34049 L 248.15951 34.73926 Z " fill-rule="evenodd" fill="rgb(62,66,137)"/><line x1="311.84049" y1="34.73926" x2="310" y2="36.94785"/><path d=" M 340.55215 34.73926 Q 362.49027 45.74592 377.91411 63.26687 Q 410.63174 94.96642 411.77914 158.2362 Q 406.65797 210.17024 378.46626 239.03374 L 368.34356 225.96626 Q 382.58991 204.69114 382.69939 169.27914 Q 377.7327 121.05565 348.28221 97.31595 Q 333.31974 83.56677 311.65644 76.5184 Q 324.22175 68.65426 334.84663 58.84969 Q 334.72932 53.76306 336.68712 50.75153 L 340.55215 34.73926 Z " fill="rgb(253,253,253)"/><path d=" M 307.05521 38.78834 L 308.71166 38.97239 L 307.79141 40.99693 C 307.10867 41.14865 306.0879 41.24737 305.76687 40.44479 L 305.76687 40.44479 L 305.39877 39.34049 L 307.05521 38.78834 Z " fill="rgb(62,66,137)"/><path d=" M 247.79141 40.62883 Q 252.2546 40.03067 253.12883 43.02147 Q 256.96697 47.6496 256.44172 56.6411 L 254.78528 60.87423 L 249.6319 61.97853 L 243.55828 41.91718 L 247.79141 40.62883 Z " fill="rgb(253,253,253)"/><path d=" M 314.41718 40.62883 L 314.96933 40.81288 L 314.23313 41.18098 L 314.60123 41.91718 L 314.23313 41.91718 L 314.04908 41.36503 L 313.49693 41.54908 L 314.41718 40.62883 Z " fill="rgb(166,167,200)"/><path d=" M 314.41718 40.99693 L 314.23313 41.54908 Q 313.88344 45.06442 311.47239 46.5184 Q 308.02147 51.34969 302.26994 53.88037 L 303.92638 51.85583 L 312.57669 42.10123 L 314.41718 40.99693 Z  M 225.33742 44.67791 C 228.35735 44.87991 231.82412 46.90944 232.92639 49.90336 C 233.54046 51.57126 233.48131 53.43497 233.25153 55.16871 L 233.25153 55.16871 L 230.67485 59.58589 C 235.08479 61.30334 239.07732 64.00842 242.08589 67.68405 L 242.08589 67.68405 L 241.90184 68.2362 L 236.38037 70.07669 L 231.22699 65.65951 C 230.57296 64.04958 228.67454 63.96121 227.17791 64.18712 L 227.17791 64.18712 L 226.99387 64.73926 L 231.04294 73.20552 L 226.80982 75.59816 L 214.47853 50.01534 L 225.33742 44.67791 Z " fill-rule="evenodd" fill="rgb(62,66,137)"/><line x1="311.10429" y1="46.5184" x2="308.89571" y2="49.09509"/><path d=" M 366.31902 47.6227 L 367.79141 49.46319 L 366.31902 47.6227 Z  M 192.94479 48.3589 L 191.47239 50.19939 L 192.94479 48.3589 Z " fill-rule="evenodd" fill="rgb(60,63,136)"/><path d=" M 344.23313 49.09509 L 347.36196 51.11963 L 341.47239 64.37117 L 342.02454 64.55521 L 353.43558 55.35276 L 355.82822 57.3773 L 350.67485 70.26074 L 351.22699 70.44479 L 358.58896 64.18712 C 358.71518 62.29381 360.12111 61.50568 361.90184 61.61043 L 361.90184 61.61043 L 364.66258 64.00307 L 344.96933 83.32822 L 342.20859 81.30368 L 347.36196 67.31595 L 346.80982 67.1319 L 339.07975 74.86196 C 338.52568 76.27794 337.21641 78.79623 335.76687 76.70245 L 335.76687 76.70245 L 333.37423 75.04601 L 340.3681 57.3773 L 344.23313 49.09509 Z " fill="rgb(62,66,137)"/><path d=" M 222.76074 49.83129 C 227.08404 49.15544 228.90661 52.63596 228.46626 56.6411 L 228.46626 56.6411 L 226.07362 59.40184 L 224.96933 59.76994 L 221.10429 50.75153 L 222.76074 49.83129 Z " fill="rgb(253,253,253)"/><path d=" M 310 50.19939 L 311.28834 50.75153 L 310.7362 50.56748 L 309.81595 50.75153 L 310 51.30368 C 309.33835 50.97286 309.33835 50.53021 310 50.19939 L 310 50.19939 Z " fill="rgb(166,167,200)"/><path d=" M 369.2638 50.19939 L 371.10429 52.40798 L 369.2638 50.19939 Z  M 190 50.93558 L 186.68712 54.61656 L 190 50.93558 Z " fill-rule="evenodd" fill="rgb(60,63,136)"/><line x1="306.31902" y1="50.93558" x2="304.84663" y2="52.77607"/><line x1="371.47239" y1="52.40798" x2="374.04908" y2="55.35276"/><line x1="192.20859" y1="53.14417" x2="190" y2="55.72086"/><line x1="186.31902" y1="54.61656" x2="183.00613" y2="58.29755"/><line x1="374.41718" y1="54.98466" x2="376.99387" y2="57.92945"/><path d=" M 371.84049 56.82515 L 374.78528 60.13804 L 371.84049 56.82515 Z  M 227.91411 57.56135 L 226.44172 59.40184 L 227.91411 57.56135 Z " fill-rule="evenodd" fill="rgb(166,167,200)"/><line x1="376.62577" y1="57.56135" x2="379.20245" y2="60.50613"/><path d=" M 206.56442 57.92945 C 207.40846 57.95277 208.2578 58.02517 209.09012 58.16448 C 216.66319 59.43196 220.57582 68.12843 219.1139 75.19519 C 218.85609 76.44143 218.66807 77.26769 218.23871 78.46111 C 216.45654 83.41469 213.00189 86.72831 207.68021 87.02071 C 202.03801 87.33072 197.74206 81.70127 196.32356 76.86662 C 195.42639 73.8088 194.91932 70.32329 195.72257 67.19496 C 196.76202 63.14673 199.55779 59.99249 203.54496 58.63698 C 204.52434 58.30402 205.54156 58.07686 206.56442 57.92945 L 206.56442 57.92945 Z " fill="rgb(62,66,137)"/><line x1="182.63804" y1="58.29755" x2="179.69325" y2="61.61043"/><path d=" M 303.37423 59.76994 Q 307.20245 59.2546 308.71166 61.05828 Q 308.29755 63.77301 306.31902 64.92331 L 302.45399 66.57975 C 305.93011 67.0735 307.90723 69.41409 307.23926 72.83742 L 307.23926 72.83742 L 305.95092 74.49387 L 303.74233 74.86196 C 301.17999 73.33369 298.22286 72.58765 295.27607 72.28528 L 295.27607 72.28528 L 295.64417 73.02147 L 300.6135 75.04601 L 300.06135 76.70245 L 298.58896 77.07055 L 287.73006 74.30982 C 288.95033 66.1214 295.50439 61.23449 303.37423 59.76994 L 303.37423 59.76994 Z " fill="rgb(253,253,253)"/><line x1="214.29448" y1="60.50613" x2="215.76687" y2="62.34663"/><line x1="379.57055" y1="60.50613" x2="381.04294" y2="62.34663"/><path d=" M 183.74233 61.61043 L 181.53374 64.18712 L 183.74233 61.61043 Z  M 259.93865 61.61043 L 258.46626 63.45092 L 259.93865 61.61043 Z " fill-rule="evenodd" fill="rgb(166,167,200)"/><line x1="178.58896" y1="62.71472" x2="177.11656" y2="64.55521"/><path d=" M 363.74233 62.71472 Q 367.23926 64.92331 361.90184 67.1319 Q 366.3484 64.92331 363.74233 62.71472 Z " fill="rgb(166,167,200)"/><path d=" M 204.72393 63.45092 Q 210.99474 62.70158 212.26994 66.94785 Q 214.58589 69.78528 214.11043 75.41411 Q 213.56665 78.55131 211.34969 80.01534 L 208.03681 80.75153 C 202.28719 78.98437 198.46432 72.72559 201.0351 66.84799 C 201.43575 65.93198 202.06348 65.12883 202.88344 64.55521 L 202.88344 64.55521 L 204.72393 63.45092 Z " fill="rgb(253,253,253)"/><path d=" M 291.22699 63.45092 L 289.7546 65.29141 L 291.22699 63.45092 Z  M 292.69939 64.55521 L 290.8589 66.7638 L 292.69939 64.55521 Z  M 308.89571 64.92331 L 307.42331 66.7638 L 308.89571 64.92331 Z  M 271.34969 65.29141 L 269.8773 67.1319 L 271.34969 65.29141 Z  M 282.02454 65.65951 L 281.84049 66.21166 L 280.18405 68.2362 C 279.58473 67.48705 280.28002 66.79584 280.92025 66.39571 L 280.92025 66.39571 L 281.47239 66.57975 L 282.02454 65.65951 Z  M 272.82209 66.39571 L 271.34969 68.2362 L 272.82209 66.39571 Z " fill-rule="evenodd" fill="rgb(166,167,200)"/><path d=" M 281.28834 66.39571 L 280 68.05215 L 277.97546 70.44479 L 277.05521 70.26074 L 281.28834 66.39571 Z " fill="rgb(62,66,137)"/><path d=" M 346.80982 67.1319 L 347.36196 67.31595 L 346.62577 67.68405 L 346.99387 68.42025 L 346.62577 68.42025 L 346.44172 67.8681 L 340.7362 73.20552 L 346.80982 67.1319 Z  M 313.68098 69.70859 L 317.17791 69.89264 L 313.68098 70.07669 L 313.68098 69.70859 Z " fill-rule="evenodd" fill="rgb(166,167,200)"/><path d=" M 309.6319 71.54908 L 314.23313 72.10123 L 291.59509 89.58589 L 291.41104 89.03374 C 292.35941 88.4015 292.3121 87.07815 292.14724 86.08896 L 292.14724 86.08896 L 292.14724 85.35276 C 293.14854 84.29876 293.08602 82.63492 292.88344 81.30368 L 292.88344 81.30368 L 292.51534 80.19939 L 294.17178 78.17485 C 295.99864 78.99988 298.09493 79.07157 300.06135 78.91104 L 300.06135 78.91104 L 302.08589 77.2546 L 302.26994 76.70245 C 304.64703 77.01653 307.60539 76.81774 308.71166 74.30982 L 308.71166 74.30982 L 309.6319 71.54908 Z " fill="rgb(253,253,253)"/><path d=" M 187.79141 72.28528 L 190.55215 74.67791 L 189.2638 76.33436 L 190.18405 75.04601 L 188.15951 72.65337 L 187.05521 73.38957 L 187.79141 72.28528 Z " fill="rgb(166,167,200)"/><path d=" M 187.79141 72.65337 L 190.18405 74.67791 L 185.39877 80.56748 L 189.2638 84.80061 L 192.76074 81.30368 C 192.96331 79.68312 195.31893 79.63755 196.25983 80.63435 C 196.79242 81.19858 196.86238 82.04017 196.80982 82.77607 L 196.80982 82.77607 L 192.39264 88.29755 L 200.1227 97.1319 Q 196.90184 103.4816 193.68098 96.94785 L 183.55828 86.82515 L 180.9816 83.88037 C 180.0265 83.74393 179.783 82.88862 179.8773 82.03988 L 179.8773 82.03988 L 187.79141 72.65337 Z  M 372.94479 74.12577 L 374.23313 74.30982 L 377.54601 77.9908 L 363.74233 100.62883 L 360.9816 98.2362 L 363.92638 92.34663 L 358.58896 87.3773 L 353.43558 90.32209 L 350.4908 87.0092 L 372.94479 74.12577 Z " fill-rule="evenodd" fill="rgb(62,66,137)"/><path d=" M 280.18405 74.49387 L 277.97546 77.07055 L 280.18405 74.49387 Z  M 374.41718 74.49387 L 377.36196 77.80675 L 374.41718 74.49387 Z " fill-rule="evenodd" fill="rgb(166,167,200)"/><path d=" M 286.44172 75.96626 C 288.38887 75.87509 290.51577 76.08506 292.14724 77.2546 L 292.14724 77.2546 L 290.4908 79.64724 L 287.17791 79.27914 L 286.99387 79.83129 L 290.67485 80.93558 L 291.04294 83.14417 L 290.4908 84.06442 L 285.52147 84.24847 L 289.93865 86.45706 L 289.7546 87.7454 L 285.88957 88.29755 L 289.20245 90.50613 L 291.22699 93.26687 Q 296.01525 95.28843 299.1411 98.97239 Q 307.34752 108.98684 310.92025 123.63497 L 308.89571 123.81902 L 307.79141 123.45092 Q 302.93215 123.92909 300.06135 126.39571 Q 296.70125 123.68218 290.8589 123.45092 L 288.46626 124.00307 L 288.65031 124.55521 C 292.37068 124.68652 296.26639 125.54441 299.1411 128.05215 L 299.1411 128.05215 L 296.01227 132.28528 C 291.99082 131.60712 288.0298 130.20341 284.78528 127.68405 L 284.78528 127.68405 L 283.86503 124.55521 L 283.12883 124.18712 L 280.92025 124.92331 L 279.44785 124.18712 L 278.34356 124.92331 Q 276.71012 123.79601 277.60736 120.13804 Q 276.41104 120.78221 276.31902 122.53067 L 277.05521 125.84356 C 267.40346 126.30718 257.33634 128.8809 250.3681 135.96626 L 250.3681 135.96626 L 250.55215 135.41411 C 254.12274 122.09186 260.58738 109.50682 270.6135 99.89264 L 270.6135 99.89264 L 281.10429 90.87423 L 280.7362 88.29755 L 282.57669 86.82515 L 282.94479 86.08896 C 281.69526 85.49708 281.66143 83.95789 281.84049 82.77607 L 281.84049 82.77607 L 282.94479 82.03988 L 283.12883 79.27914 L 284.41718 78.3589 C 284.28845 77.54364 284.38493 76.55416 285.33742 76.33436 L 285.33742 76.33436 L 286.44172 75.96626 Z  M 281.65644 76.33436 L 282.57669 76.5184 L 282.39264 77.43865 L 281.10429 78.3589 L 280.7362 80.56748 C 281.67437 81.19293 280.64438 81.78212 280 82.03988 L 280 82.03988 L 279.6319 84.24847 L 280.3681 85.72086 C 279.10803 86.52272 278.61161 87.97377 278.52761 89.40184 L 278.52761 89.40184 L 278.89571 90.13804 Q 277.50942 93.72108 272.82209 94.00307 Q 269.92033 92.3036 265.64417 91.97853 L 272.82209 84.43252 L 281.65644 76.33436 Z " fill-rule="evenodd" fill="rgb(253,253,253)"/><path d=" M 186.68712 78.91104 L 185.76687 80.19939 L 186.50307 81.30368 L 185.39877 80.56748 L 186.68712 78.91104 Z  M 278.34356 78.91104 L 273.19018 84.43252 L 278.34356 78.91104 Z " fill-rule="evenodd" fill="rgb(166,167,200)"/><path d=" M 371.10429 80.38344 L 370.92025 80.93558 L 365.95092 89.21779 L 362.45399 85.35276 L 371.10429 80.38344 Z " fill="rgb(253,253,253)"/><path d=" M 179.69325 82.22393 L 183.55828 86.45706 L 179.5092 82.77607 L 179.69325 82.22393 Z  M 269.8773 85.16871 L 264.72393 90.69018 L 269.8773 85.16871 Z  M 364.47853 87.7454 L 365.95092 89.58589 L 364.47853 87.7454 Z " fill-rule="evenodd" fill="rgb(166,167,200)"/><path d=" M 175.64417 88.4816 L 178.77301 90.87423 L 176.56442 94.18712 L 192.39264 107.80675 C 192.48437 108.54057 192.30883 109.32378 191.47239 109.46319 L 191.47239 109.46319 L 189.6319 110.56748 L 173.80368 98.78834 L 171.59509 102.10123 L 168.83436 100.07669 L 175.64417 88.4816 Z  M 384.35583 88.84969 L 386.01227 90.13804 C 389.76658 92.81027 392.11628 98.16798 389.45169 102.31979 C 387.41959 105.48608 384.27167 106.27067 380.67485 105.78221 L 380.67485 105.78221 L 379.20245 105.04601 L 374.41718 114.61656 L 373.12883 113.69632 L 371.28834 110.75153 L 376.44172 101.91718 L 375.15337 101.36503 L 368.52761 106.5184 L 366.13497 103.38957 L 384.35583 88.84969 Z " fill-rule="evenodd" fill="rgb(62,66,137)"/><path d=" M 194.04908 89.95399 L 195.52147 91.79448 L 194.04908 89.95399 Z  M 262.51534 89.95399 L 261.04294 91.79448 L 262.51534 89.95399 Z " fill-rule="evenodd" fill="rgb(166,167,200)"/><path d=" M 253.31288 91.79448 L 254.23313 91.97853 L 254.96933 96.02761 L 251.47239 99.89264 L 247.42331 103.20552 L 243.92638 100.81288 C 243.83198 99.09195 244.49245 97.58759 246.31902 97.31595 L 246.31902 97.31595 L 247.42331 97.68405 L 252.20859 92.53067 L 253.31288 91.79448 Z " fill="rgb(253,253,253)"/><path d=" M 197.36196 93.63497 L 198.83436 95.47546 L 197.36196 93.63497 Z  M 259.20245 93.63497 L 257.73006 95.47546 L 259.20245 93.63497 Z  M 191.10429 94.37117 L 195.52147 98.78834 C 196.11534 100.11313 197.05243 100.865 197.91411 99.34049 L 197.91411 99.34049 L 200.4908 97.1319 L 197.91411 99.70859 C 197.05243 101.2331 196.11534 100.48123 195.52147 99.15644 L 195.52147 99.15644 L 191.10429 94.37117 Z " fill-rule="evenodd" fill="rgb(166,167,200)"/><path d=" M 290.1227 95.10736 L 293.61963 97.8681 C 300.81548 104.08678 303.47287 113.68491 303.92638 122.89877 L 303.92638 122.89877 L 303.55828 122.89877 L 301.90184 120.87423 L 301.16564 121.24233 C 300.38582 120.58248 300.45753 119.38622 300.6135 118.4816 L 300.6135 118.4816 L 301.71779 119.21779 L 302.63804 120.50613 L 302.82209 117.3773 Q 301.48289 112.27478 298.95706 108.3589 Q 296.93252 108.72699 296.56442 107.43865 L 296.74847 106.8865 L 298.03681 106.70245 C 298.26489 103.50934 295.23915 104.09875 293.08046 103.19254 C 291.23432 102.41754 289.80343 100.99799 289.0184 99.15644 L 289.0184 99.15644 L 287.54601 100.26074 L 287.73006 99.70859 C 287.91099 97.92512 288.59858 96.15731 290.1227 95.10736 L 290.1227 95.10736 Z " fill="rgb(62,66,137)"/><path d=" M 383.61963 95.10736 L 384.90798 95.65951 C 386.37341 95.94039 386.83845 97.22757 386.74847 98.60429 L 386.74847 98.60429 L 384.72393 100.99693 C 383.95755 101.81121 382.45249 102.0016 381.41104 101.73313 C 379.62537 101.27281 377.34348 99.53686 379.57055 98.05215 L 379.57055 98.05215 L 383.61963 95.10736 Z " fill="rgb(253,253,253)"/><line x1="259.93865" y1="95.47546" x2="255.88957" y2="99.89264"/><path d=" M 279.81595 95.47546 L 281.10429 96.39571 Q 281.55413 103.65536 279.07975 107.9908 Q 279.5386 104.40312 277.60736 103.20552 L 270.79755 109.27914 L 266.19632 116.08896 L 266.01227 115.53681 C 267.32165 112.86568 268.96983 110.44109 270.88382 108.1691 C 272.32515 106.45816 273.82788 105.30011 274.47853 103.02147 L 274.47853 103.02147 L 273.00613 101.18098 L 279.81595 95.47546 Z " fill="rgb(62,66,137)"/><path d=" M 260.67485 96.21166 L 255.15337 102.10123 L 260.67485 96.21166 Z  M 271.34969 96.57975 L 266.19632 102.10123 L 271.34969 96.57975 Z  M 273.55828 96.94785 L 270.9816 99.89264 L 273.55828 96.94785 Z  M 212.45399 97.31595 L 210.9816 99.15644 L 212.45399 97.31595 Z  M 348.28221 97.31595 L 350.4908 99.89264 L 348.28221 97.31595 Z  M 255.15337 98.05215 L 249.6319 103.94172 L 255.15337 98.05215 Z  M 251.10429 99.89264 L 248.89571 102.46933 L 251.10429 99.89264 Z  M 290.8589 100.26074 C 291.39801 102.51231 293.23941 103.62389 295.46012 103.75767 L 295.46012 103.75767 L 294.17178 103.94172 L 290.8589 100.26074 Z  M 269.1411 101.36503 L 266.93252 103.94172 L 269.1411 101.36503 Z  M 206.56442 103.20552 L 204.35583 105.78221 L 206.56442 103.20552 Z  M 354.17178 103.20552 L 356.38037 105.78221 L 354.17178 103.20552 Z  M 296.01227 103.94172 L 297.85276 106.15031 L 296.01227 103.94172 Z  M 278.71166 104.67791 L 279.2638 108.54294 L 278.52761 108.91104 L 278.71166 104.67791 Z " fill-rule="evenodd" fill="rgb(166,167,200)"/><path d=" M 229.7546 106.5184 L 244.29448 113.69632 L 250.18405 129.89264 L 249.6319 130.07669 C 241.09184 124.55836 233.35396 117.39876 228.83436 108.17485 L 228.83436 108.17485 L 229.7546 106.5184 Z " fill="rgb(253,253,253)"/><path d=" M 166.07362 107.6227 L 172.14724 110.75153 L 185.39877 118.1135 L 183.00613 121.97853 L 164.04908 111.48773 L 166.07362 107.6227 Z " fill="rgb(62,66,137)"/><path d=" M 244.47853 109.09509 L 245.95092 110.93558 L 244.47853 109.09509 Z  M 191.10429 109.46319 L 190 110.93558 L 189.07975 110.38344 L 189.6319 110.56748 L 191.10429 109.46319 Z " fill-rule="evenodd" fill="rgb(166,167,200)"/><path d=" M 395.76687 109.83129 L 396.68712 110.01534 C 400.23287 112.9966 401.57501 120.04879 398.22113 123.60457 C 395.80878 126.16215 390.55152 127.39671 388.40491 123.81902 L 388.40491 123.81902 L 381.41104 132.28528 L 379.3865 127.68405 L 386.01227 120.32209 L 385.46012 119.40184 C 382.55521 119.86295 379.68306 120.86377 377.36196 122.71472 L 377.36196 122.71472 L 375.70552 119.21779 L 395.76687 109.83129 Z " fill="rgb(62,66,137)"/><path d=" M 224.60123 113.14417 Q 228.37423 112.31595 229.93865 113.69632 Q 232.43168 118.19716 236.19632 121.42638 L 233.61963 123.26687 Q 235.92025 125.93558 236.56442 130.26074 Q 235.19632 131.83742 231.96319 131.54908 L 228.83436 129.15644 L 226.99387 126.57975 C 229.13615 125.10141 229.64551 122.39436 229.57055 119.95399 L 229.57055 119.95399 L 228.28221 119.03374 C 226.9614 119.33854 227.42893 120.78588 227.3982 121.73869 C 227.35942 122.94093 227.15484 124.2025 226.07362 124.92331 L 226.07362 124.92331 L 222.94479 125.47546 L 222.57669 126.21166 L 223.12883 127.1319 C 223.9049 126.94712 225.11176 126.78268 225.52147 127.68405 L 225.52147 127.68405 L 229.3865 132.28528 L 231.04294 133.20552 C 230.97239 134.92923 230.45813 136.72854 229.0184 137.80675 L 229.0184 137.80675 L 227.17791 138.17485 L 222.39264 133.38957 Q 219.72393 132.3773 221.10429 131.36503 Q 222.41564 130.65184 222.20859 128.42025 L 221.28834 127.8681 L 220.3681 128.42025 L 218.71166 130.81288 L 217.42331 131.36503 C 217.30485 131.95732 217.27469 132.78788 217.97546 133.02147 L 217.97546 133.02147 L 219.07975 132.65337 L 224.04908 137.9908 C 225.69293 138.41698 226.94608 141.22487 225.72421 142.63372 C 224.61018 143.91824 222.9131 144.16876 221.28834 144.06442 L 221.28834 144.06442 L 213.37423 137.6227 C 214.50823 136.9423 214.60976 135.49091 214.47853 134.30982 L 214.47853 134.30982 L 213.55828 133.75767 L 210.9816 137.07055 L 209.32515 137.9908 L 209.8773 139.27914 L 212.08589 138.91104 L 220 145.35276 C 220.18905 146.9597 219.76829 148.57387 217.97546 148.84969 L 217.97546 148.84969 L 215.03067 149.21779 L 211.90184 146.82515 C 208.8828 143.76132 206.85034 139.88752 205.64417 135.78221 L 205.64417 135.78221 L 209.69325 132.10123 L 209.32515 127.68405 Q 213.8307 127.95647 215.95092 125.84356 Q 214.73415 120.02556 217.60736 118.29755 L 222.02454 118.66564 L 222.94479 118.1135 C 222.94479 116.34759 223.3049 114.4405 224.60123 113.14417 L 224.60123 113.14417 Z " fill="rgb(253,253,253)"/><path d=" M 263.98773 113.51227 L 264.17178 114.43252 C 262.29847 116.98616 261.48622 120.15245 261.22699 123.26687 L 261.22699 123.26687 L 261.77914 124.18712 L 262.33129 124.00307 L 263.61963 120.87423 Q 263.43777 123.44873 264.90798 124.37117 Q 262.52147 126.40184 258.46626 126.7638 L 258.65031 126.21166 L 258.83436 125.65951 L 259.3865 125.47546 C 259.73811 121.1607 260.9901 116.75701 263.98773 113.51227 L 263.98773 113.51227 Z " fill="rgb(62,66,137)"/><path d=" M 393.55828 115.72086 L 394.84663 116.27301 C 396.42642 117.49375 396.50166 120.1016 394.70416 121.05385 C 393.68209 121.5953 392.48048 121.67613 391.34969 121.61043 L 391.34969 121.61043 L 388.95706 117.7454 L 393.55828 115.72086 Z " fill="rgb(253,253,253)"/><path d=" M 285.70552 118.66564 L 285.88957 121.79448 L 285.33742 122.71472 L 285.15337 120.69018 L 285.70552 118.66564 Z  M 161.65644 120.13804 L 179.8773 127.31595 L 178.58896 131.54908 L 171.96319 128.97239 L 169.57055 134.67791 L 168.83436 137.2546 L 176.19632 140.19939 L 174.53988 144.06442 L 157.05521 137.2546 C 156.9204 135.77166 157.06136 134.00198 158.34356 133.02147 L 158.34356 133.02147 L 165.33742 135.59816 C 167.17209 133.35579 168.09137 130.52249 168.46626 127.68405 L 168.46626 127.68405 L 160 124.37117 C 159.90455 122.80508 160.18842 121.00985 161.65644 120.13804 L 161.65644 120.13804 Z " fill-rule="evenodd" fill="rgb(62,66,137)"/><path d=" M 216.13497 120.13804 L 216.31902 125.10736 L 215.95092 125.10736 L 216.13497 120.13804 Z  M 277.60736 120.13804 L 277.79141 123.63497 L 277.42331 123.63497 L 277.60736 120.13804 Z  M 301.53374 120.87423 L 303.55828 122.53067 L 301.90184 121.24233 L 301.53374 120.87423 Z  M 384.72393 121.61043 L 383.25153 123.45092 L 384.72393 121.61043 Z " fill-rule="evenodd" fill="rgb(166,167,200)"/><path d=" M 271.34969 121.97853 L 273.37423 122.16258 L 273.19018 123.08282 L 268.03681 123.81902 L 267.85276 123.26687 L 271.34969 121.97853 Z " fill="rgb(62,66,137)"/><line x1="398.71166" y1="122.71472" x2="397.23926" y2="124.55521"/><path d=" M 237.48466 123.08282 L 243.55828 128.05215 Q 244.19701 133.6602 241.53374 135.96626 Q 238.00753 136.67317 235.82822 138.72699 L 233.43558 143.32822 L 227.73006 142.03988 L 228.28221 140.01534 C 229.71109 139.67588 231.0017 138.89404 231.77914 137.6227 L 231.77914 137.6227 L 233.43558 133.38957 C 234.5973 133.39917 235.81379 133.2387 236.83474 132.64762 C 239.82726 130.91511 238.49992 125.8442 236.19632 124.00307 L 236.19632 124.00307 L 237.48466 123.08282 Z " fill="rgb(253,253,253)"/><line x1="381.04294" y1="125.65951" x2="379.57055" y2="127.5"/><path d=" M 306.68712 126.02761 C 310.39566 125.97394 314.31224 126.4734 317.54601 128.42025 L 317.54601 128.42025 L 318.46626 130.44479 L 321.04294 130.81288 C 321.66839 129.87471 322.25758 130.9047 322.51534 131.54908 L 322.51534 131.54908 L 323.06748 131.73313 L 320.4908 133.20552 L 321.04294 134.12577 Q 325.92025 132.92945 327.11656 135.41411 Q 327.57932 139.36854 330.06135 141.30368 Q 333.72296 141.8752 333.37423 146.45706 Q 317.71391 146.62495 306.50307 151.24233 Q 308.51227 153.46626 314.04908 152.16258 Q 326.2582 151.85636 336.87117 149.95399 L 338.15951 151.97853 C 335.85204 152.05957 333.45806 152.75591 332.08589 154.73926 L 332.08589 154.73926 L 330.9816 153.26687 L 328.77301 152.89877 Q 324.39198 152.56683 321.96319 154.18712 Q 321.77019 157.50895 323.61963 158.78834 L 326.38037 160.07669 C 327.37405 162.90756 327.7733 165.92239 327.85276 168.91104 L 327.85276 168.91104 L 327.11656 168.54294 Q 323.94214 161.96277 319.57055 156.57975 Q 317.26994 156.11963 316.80982 157.5 L 319.7546 175.53681 L 319.3865 175.53681 L 314.96933 165.59816 C 312.20584 163.14668 314.45411 159.64812 313.48561 156.72911 C 313.26095 156.052 312.82873 155.46854 312.20859 155.10736 L 312.20859 155.10736 L 305.95092 155.84356 L 305.76687 152.71472 Q 306.21385 144.87949 309.81595 140.19939 Q 313.83157 139.42973 313.49693 134.30982 L 312.57669 133.75767 Q 311.74847 134.95399 308.89571 134.12577 Q 307.88344 131.6411 306.87117 133.20552 L 306.31902 134.49387 L 304.66258 134.30982 L 306.13497 131.73313 L 305.58282 130.81288 C 304.47537 131.10854 303.41839 131.61759 302.56738 132.39866 C 300.33799 134.44481 302.15878 137.84411 299.5092 139.83129 L 299.5092 139.83129 L 300.2454 140.93558 L 298.77301 143.88037 L 299.32515 144.80061 L 301.53374 145.53681 C 302.04679 144.68174 303.33383 144.95691 304.11043 145.16871 L 304.11043 145.16871 L 304.29448 146.45706 C 304.08668 148.25549 303.50528 150.06303 302.26994 151.42638 L 302.26994 151.42638 L 299.32515 151.79448 L 299.5092 151.24233 C 299.9184 149.40095 297.92061 148.05786 296.68232 149.84183 C 295.67182 151.29765 297.09437 153.40503 298.58896 153.63497 L 298.58896 153.63497 L 302.45399 154.55521 L 302.26994 163.57362 Q 300.6135 163.94172 300.2454 163.02147 Q 300.52147 161.6411 299.69325 161.36503 L 299.1411 161.54908 L 298.58896 162.46933 L 297.85276 162.83742 C 297.96912 161.04547 297.76106 158.99011 296.38037 157.68405 L 296.38037 157.68405 L 295.82822 157.8681 C 294.85086 161.13453 294.95002 164.55215 295.24041 167.90913 C 295.76431 173.96533 296.86121 180.06991 299.32515 185.65951 L 299.32515 185.65951 L 299.5092 184.00307 C 298.10032 178.97615 297.46774 173.75187 297.30061 168.54294 L 297.30061 168.54294 L 297.85276 166.5184 L 302.45399 166.70245 L 303.19018 173.32822 C 302.21896 173.25351 300.35638 173.32419 299.8773 174.43252 C 299.48837 175.33228 299.42544 177.02073 300.42945 177.56135 L 300.42945 177.56135 L 304.66258 178.1135 Q 306.70312 181.22633 306.50307 186.57975 Q 306.00844 188.10966 303.74233 187.8681 L 302.63804 185.29141 L 301.71779 185.47546 C 301.70307 186.65643 301.89226 187.80809 302.48902 188.84534 C 303.63293 190.83359 306.03309 189.96181 307.42331 188.60429 L 307.42331 188.60429 L 310.3681 193.38957 L 310.92025 192.10123 C 307.24239 183.28292 305.92907 173.62251 305.76687 164.12577 L 305.76687 164.12577 L 308.52761 163.94172 L 319.93865 189.70859 L 325.09202 200.75153 Q 328.49693 201.57975 329.32515 199.83129 Q 329.49343 191.7489 327.85276 185.47546 L 328.22086 185.47546 Q 329.31815 194.31682 333.92638 199.64724 Q 336.41104 199.92331 336.68712 197.9908 L 337.05521 195.04601 Q 332.43686 178.86682 330.42945 160.07669 Q 331.25767 158.69632 334.29448 159.52454 Q 336.77078 161.64947 336.31902 166.70245 L 341.10429 185.84356 C 341.65365 190.21044 342.72118 194.54924 344.60123 198.54294 L 344.60123 198.54294 L 346.25767 198.3589 L 347.91411 183.81902 L 349.20245 184.37117 L 352.14724 199.09509 C 342.36958 198.7276 331.61498 200.02914 323.80368 206.45706 L 323.80368 206.45706 L 324.72393 207.7454 L 325.82822 208.1135 C 333.29242 204.39545 341.88964 203.49706 350.1227 203.69632 L 350.1227 203.69632 L 352.51534 204.61656 C 351.78869 212.34544 348.39317 224.59693 338.34356 222.83742 C 335.45059 222.33092 332.4726 221.04728 329.8796 219.70629 C 326.71012 218.06716 323.8176 215.90568 321.41104 213.26687 L 321.41104 213.26687 L 320.8589 214.18712 L 321.59509 216.02761 Q 320.3681 216.6411 320.67485 218.78834 Q 313.54294 215.9816 309.44785 210.13804 L 305.58282 202.59202 L 305.39877 204.98466 C 308.04295 212.57681 312.96908 219.10046 319.93865 223.20552 L 319.93865 223.20552 L 320.4908 223.02147 Q 321.26643 220.11613 323.61963 218.78834 Q 326.84189 221.82376 331.53374 223.38957 L 329.1411 227.6227 L 328.58896 227.43865 Q 328.81902 225.55215 327.66871 225.04601 Q 325.84663 226.53681 326.01227 230.01534 L 327.30061 230.19939 C 328.78653 230.00349 330.24291 229.40312 331.16564 228.17485 L 331.16564 228.17485 L 332.45399 223.57362 L 337.23926 225.04601 C 338.11069 224.82816 339.50088 224.59992 340 225.59816 L 340 225.59816 L 339.44785 227.9908 C 338.35226 227.69864 334.72741 227.65407 336.03719 229.83704 C 336.81728 231.13718 339.24048 231.31923 340.5145 231.34133 C 341.90574 231.36545 343.51454 230.58962 344.6875 230.00959 C 346.36962 229.17777 347.91449 228.06848 349.20245 226.70245 L 349.20245 226.70245 L 347.54601 225.78221 C 346.42106 228.21314 343.74932 228.82989 341.28834 228.72699 L 341.28834 228.72699 L 341.10429 226.33436 L 341.65644 225.04601 C 346.17855 224.61413 350.68401 222.94824 353.43558 219.15644 L 353.43558 219.15644 L 353.25153 219.70859 Q 353.04866 228.89221 347.54601 232.77607 Q 344.01227 235.8681 336.50307 234.98466 Q 321.08909 231.07349 312.39264 220.44479 Q 292.90184 198.89264 292.88344 157.8681 Q 293.30869 139.52035 301.53374 128.97239 L 303.00613 129.34049 L 303.19018 128.78834 L 302.63804 127.8681 L 306.68712 126.02761 Z  M 279.81595 126.39571 L 281.65644 127.1319 L 282.39264 126.7638 L 283.68098 130.26074 Q 282.23926 131.39571 282.94479 134.67791 Q 284.30006 136.26743 284.04908 139.46319 Q 282.57669 141.48773 277.60736 140.01534 L 275.58282 139.46319 C 276.50346 138.69561 277.10881 137.62854 277.43354 136.48262 C 278.24692 133.61241 275.92018 129.29432 278.71166 127.1319 L 278.71166 127.1319 L 279.81595 126.39571 Z  M 272.82209 127.8681 L 275.95092 128.05215 Q 276.37565 133.0781 275.03067 136.33436 Q 271.68098 136.18712 270.42945 133.94172 L 267.48466 129.15644 L 272.82209 127.8681 Z " fill-rule="evenodd" fill="rgb(253,253,253)"/><path d=" M 312.20859 128.60429 C 312.33327 129.86895 312.97932 130.96126 314.23313 131.36503 L 314.23313 131.36503 L 313.68098 131.18098 C 312.33626 131.51716 310.33959 131.36584 311.01515 129.4814 C 311.20624 128.94835 311.67316 128.67122 312.20859 128.60429 L 312.20859 128.60429 Z " fill="rgb(62,66,137)"/><path d=" M 245.58282 129.34049 L 249.44785 132.46933 L 247.23926 138.72699 L 247.79141 139.64724 L 248.34356 139.83129 L 248.71166 143.51227 Q 243.18786 143.694 240.06135 146.27301 Q 237.30061 149.58589 231.22699 149.58589 L 231.04294 148.66564 L 232.69939 145.16871 C 233.8242 145.34176 235.16881 145.19126 235.46012 143.88037 L 235.46012 143.88037 L 237.85276 139.27914 C 240.38666 138.99179 242.84743 137.96961 244.29448 135.78221 L 244.29448 135.78221 L 245.58282 129.34049 Z " fill="rgb(253,253,253)"/><path d=" M 399.81595 129.34049 L 401.10429 129.89264 L 401.84049 133.57362 L 384.72393 139.27914 L 383.43558 136.15031 L 388.22086 133.94172 L 399.81595 129.34049 Z " fill="rgb(62,66,137)"/><path d=" M 285.70552 130.44479 L 292.14724 132.83742 L 289.0184 136.33436 L 286.07362 137.43865 C 284.90181 136.11059 284.93096 134.11521 285.15337 132.46933 L 285.15337 132.46933 L 285.70552 130.44479 Z  M 262.14724 130.81288 Q 264.81595 130.90491 265.64417 132.83742 Q 262.30061 135.19939 260.8589 139.46319 Q 261.54908 142.26994 263.98773 143.32822 L 265.64417 144.24847 L 262.69939 151.24233 L 264.35583 153.26687 L 264.90798 153.45092 L 264.17178 160.81288 L 265.46012 162.46933 L 268.77301 162.83742 C 270.23844 161.34209 274.46058 159.72009 275.87862 161.80543 C 276.30526 162.43285 276.46582 163.19683 276.50307 163.94172 L 276.50307 163.94172 L 277.79141 163.38957 L 277.42331 161.91718 C 278.18015 161.08068 279.55043 161.15849 280.55215 161.36503 C 283.80109 162.0349 286.98204 163.20263 289.7546 165.04601 L 289.7546 165.04601 L 290.30675 164.86196 Q 290.8589 168.17485 288.65031 168.72699 Q 283.50705 173.52238 273.55828 173.51227 Q 267.53988 171.98466 264.53988 167.43865 Q 258.24106 159.38164 256.62577 146.6411 L 255.88957 146.27301 L 253.68098 148.84969 L 252.94479 149.21779 L 251.65644 148.29755 C 250.38069 145.70352 250.29808 142.65423 250.55215 139.83129 L 250.55215 139.83129 L 253.31288 136.70245 L 256.25767 138.54294 C 257.80424 137.37303 257.663 135.08179 257.36196 133.38957 L 257.36196 133.38957 L 262.14724 130.81288 Z " fill-rule="evenodd" fill="rgb(253,253,253)"/><path d=" M 221.65644 132.65337 L 226.80982 138.17485 L 221.65644 132.65337 Z  M 316.25767 132.65337 L 316.99387 134.12577 L 317.36196 133.38957 L 317.54601 133.94172 C 317.00726 134.88454 316.41694 134.34608 316.07362 133.57362 L 316.07362 133.57362 L 316.25767 132.65337 Z  M 320.67485 133.02147 L 321.04294 133.75767 L 325.64417 133.94172 L 321.04294 134.12577 L 320.67485 133.02147 Z  M 256.99387 133.38957 L 256.80982 133.94172 C 257.19176 135.29589 257.72627 137.59267 256.25767 138.54294 L 256.25767 138.54294 L 255.52147 137.43865 L 256.44172 137.9908 C 256.05977 136.63663 255.52526 134.33984 256.99387 133.38957 L 256.99387 133.38957 Z " fill-rule="evenodd" fill="rgb(166,167,200)"/><path d=" M 266.56442 134.12577 L 267.85276 134.67791 L 268.22086 137.6227 L 267.48466 139.46319 Q 269.35802 140.90272 273.00613 140.56748 Q 270.19939 142.17791 265.46012 141.85583 L 263.80368 140.56748 L 263.43558 137.9908 L 265.82822 134.49387 L 266.56442 134.12577 Z " fill="rgb(253,253,253)"/><path d=" M 220.92025 134.49387 L 226.25767 140.19939 L 225.88957 140.19939 L 220.92025 134.49387 Z " fill="rgb(166,167,200)"/><path d=" M 294.53988 135.23006 L 294.72393 135.78221 L 293.80368 138.17485 C 293.21139 138.2933 292.38083 138.32347 292.14724 137.6227 L 292.14724 137.6227 L 293.80368 135.59816 L 294.53988 135.23006 Z " fill="rgb(253,253,253)"/><line x1="312.57669" y1="136.70245" x2="311.10429" y2="138.54294"/><path d=" M 303.00613 137.07055 L 307.23926 138.3589 C 305.90192 139.50871 305.35003 141.25229 305.21472 142.96012 L 305.21472 142.96012 L 301.90184 143.32822 L 300.9816 142.03988 L 302.45399 140.93558 C 302.66579 140.15899 302.94096 138.87194 302.08589 138.3589 L 302.08589 138.3589 L 303.00613 137.07055 Z " fill="rgb(253,253,253)"/><path d=" M 279.44785 140.01534 L 282.57669 140.19939 L 279.44785 140.38344 L 279.44785 140.01534 Z  M 329.5092 140.38344 L 330.9816 142.22393 L 329.5092 140.38344 Z " fill-rule="evenodd" fill="rgb(166,167,200)"/><path d=" M 287.54601 141.11963 C 289.25275 140.98479 291.22841 141.1336 292.51534 142.40798 L 292.51534 142.40798 L 291.96319 144.06442 C 290.31191 144.0136 288.5685 143.61237 287.36196 142.40798 L 287.36196 142.40798 L 287.54601 141.11963 Z  M 274.29448 141.48773 Q 282.00903 140.9511 286.25767 143.88037 Q 284.16564 146.20552 279.81595 146.27301 Q 277.26262 144.5932 273.37423 144.24847 L 273.00613 143.14417 L 273.55828 141.85583 L 274.29448 141.48773 Z " fill-rule="evenodd" fill="rgb(253,253,253)"/><path d=" M 395.03067 141.48773 C 396.25858 141.466 397.49775 141.55498 398.69323 141.85124 C 407.54788 144.04557 408.08287 158.94157 399.49805 161.96737 C 394.7163 163.65274 389.12097 160.82662 387.5393 156.01898 C 386.03992 151.46145 387.11322 145.65916 391.34969 142.96012 L 391.34969 142.96012 L 395.03067 141.48773 Z " fill="rgb(62,66,137)"/><path d=" M 206.56442 141.85583 L 206.93252 142.59202 C 206.50555 141.88042 206.06288 142.41258 205.82822 142.96012 L 205.82822 142.96012 L 203.43558 144.98466 L 206.56442 141.85583 Z  M 279.44785 141.85583 L 282.57669 142.03988 L 279.44785 142.22393 L 279.44785 141.85583 Z " fill-rule="evenodd" fill="rgb(166,167,200)"/><path d=" M 206.56442 142.22393 L 210.06135 147.19325 L 211.16564 149.40184 L 209.8773 151.05828 C 208.03086 150.76235 206.2185 150.0399 204.90798 148.66564 L 204.90798 148.66564 L 203.43558 145.35276 L 206.56442 142.22393 Z " fill="rgb(253,253,253)"/><path d=" M 390.9816 142.96012 L 389.1411 145.16871 L 390.9816 142.96012 Z  M 401.65644 143.32822 L 403.12883 145.16871 L 401.65644 143.32822 Z " fill-rule="evenodd" fill="rgb(166,167,200)"/><path d=" M 145.46012 143.69632 L 145.64417 147.19325 L 145.27607 147.19325 L 145.46012 143.69632 Z " fill="rgb(61,64,136)"/><path d=" M 148.40491 143.69632 L 148.58896 148.29755 L 148.22086 148.29755 L 148.40491 143.69632 Z " fill="rgb(166,167,200)"/><path d=" M 227.17791 144.06442 L 230.67485 144.98466 C 230.13943 147.18139 229.06288 150.00658 227.17791 151.42638 C 225.4938 152.6949 222.4785 152.41384 220.55215 152.16258 L 220.55215 152.16258 L 218.15951 150.87423 L 221.10429 148.66564 L 222.39264 145.90491 C 224.13132 145.84924 225.96725 145.4 227.17791 144.06442 L 227.17791 144.06442 Z  M 198.09816 144.43252 C 199.22043 144.31258 201.12926 144.39664 201.59509 145.72086 C 202.39448 147.99327 202.97678 149.98232 205.09202 151.42638 L 205.09202 151.42638 L 208.58896 152.71472 C 209.39622 156.48195 204.95971 157.4373 202.03221 157.93712 C 199.93458 158.29525 197.4887 157.45181 196.04486 155.87232 C 193.9666 153.59878 194.29031 150.70492 195.46611 148.01213 C 196.06536 146.63975 196.95 145.39681 198.09816 144.43252 L 198.09816 144.43252 Z  M 246.31902 145.90491 L 249.07975 146.08896 C 249.15979 147.90985 249.79789 149.75686 251.47239 150.69018 L 251.47239 150.69018 L 253.68098 151.05828 L 255.15337 150.32209 L 255.70552 152.34663 L 253.68098 154.73926 L 255.70552 153.81902 L 255.88957 153.26687 L 257.54601 158.60429 C 256.77893 159.45212 255.4296 159.3424 254.41718 159.15644 L 254.41718 159.15644 L 251.10429 158.42025 L 250.55215 159.70859 L 255.70552 161.54908 L 252.94479 166.15031 L 252.39264 165.96626 L 250.7362 163.94172 L 250 163.57362 L 248.71166 164.49387 L 247.60736 167.43865 L 248.52761 167.6227 L 250 167.2546 L 251.65644 168.54294 L 252.76074 171.11963 L 251.10429 171.30368 L 247.42331 169.46319 L 246.50307 170.01534 L 246.13497 174.06442 C 246.89583 174.48712 246.6815 175.59495 246.50307 176.27301 L 246.50307 176.27301 L 245.95092 176.08896 C 241.16526 175.6599 236.00344 175.79957 231.59509 177.92945 L 231.59509 177.92945 L 231.41104 174.43252 L 234.90798 170.56748 L 231.22699 170.93558 L 231.04294 168.54294 L 231.59509 167.6227 L 235.09202 166.70245 C 227.53322 165.76708 230.94158 155.71 234.53988 152.16258 L 234.53988 152.16258 L 236.74847 151.79448 L 236.93252 152.34663 L 233.61963 154.18712 L 235.82822 157.5 L 231.41104 161.18098 L 235.64417 162.46933 C 237.7031 156.11951 241.21781 150.26916 246.31902 145.90491 L 246.31902 145.90491 Z  M 269.5092 146.27301 C 270.66877 146.16079 272.38041 146.36583 272.27329 147.84078 C 272.18659 149.03468 271.94286 150.24491 270.9816 151.05828 L 270.9816 151.05828 L 269.8773 151.42638 Q 269.02863 150.25051 266.38037 150.87423 Q 267.17178 147.80061 269.5092 146.27301 Z  M 395.39877 146.6411 C 398.3796 146.27991 400.96595 147.33901 401.81173 150.39686 C 402.11893 151.5075 402.02727 152.69832 401.84049 153.81902 L 401.84049 153.81902 L 400.18405 156.21166 C 398.88229 157.56549 396.75077 157.54918 395.03067 157.31595 L 395.03067 157.31595 L 391.90184 154.92331 C 391.02117 153.80046 391.00852 152.22287 391.16564 150.87423 L 391.16564 150.87423 L 393.55828 147.3773 L 395.39877 146.6411 Z  M 275.03067 147.7454 L 277.42331 148.66564 L 277.23926 149.21779 L 273.19018 149.95399 L 273.00613 149.40184 L 273.55828 148.1135 L 275.03067 147.7454 Z  M 283.12883 147.7454 L 284.41718 147.92945 L 283.49693 149.95399 Q 281.69004 148.8161 278.52761 149.03374 Q 279.80887 147.37022 283.12883 147.7454 Z  M 285.70552 147.7454 L 288.46626 149.76994 L 289.20245 151.61043 L 288.28221 151.79448 L 285.15337 150.50613 L 285.70552 147.7454 Z " fill-rule="evenodd" fill="rgb(253,253,253)"/><path d=" M 156.87117 149.21779 L 172.51534 155.29141 L 172.33129 159.52454 L 162.94479 161.18098 L 171.77914 165.59816 L 172.14724 168.91104 C 171.30514 170.13447 169.57021 170.05279 168.28221 169.83129 L 168.28221 169.83129 L 157.23926 172.40798 L 157.05521 169.27914 L 165.15337 166.70245 L 164.96933 166.15031 L 156.31902 162.65337 L 156.50307 159.52454 L 166.25767 156.7638 L 156.31902 153.08282 L 156.87117 149.21779 Z " fill="rgb(62,66,137)"/><path d=" M 278.71166 149.21779 L 281.84049 149.40184 L 278.71166 149.58589 L 278.71166 149.21779 Z " fill="rgb(166,167,200)"/><path d=" M 277.97546 151.05828 Q 281.34816 150.99847 283.31288 152.34663 Q 282.08589 154.80061 282.39264 158.78834 Q 278.58691 157.4407 273.00613 157.8681 Q 272.03988 155.70552 272.63804 151.97853 L 276.50307 151.42638 L 276.68712 151.97853 C 275.85532 152.98544 275.8196 154.42513 275.95092 155.65951 L 275.95092 155.65951 L 276.68712 155.29141 L 277.97546 151.05828 Z  M 216.13497 151.79448 C 218.01791 154.01978 221.10977 154.48138 223.86503 154.37117 L 223.86503 154.37117 L 226.80982 153.63497 L 226.99387 154.92331 L 226.07362 156.57975 C 222.77034 157.08071 218.85026 157.26139 215.95092 155.29141 L 215.95092 155.29141 L 215.58282 152.71472 L 216.13497 151.79448 Z " fill-rule="evenodd" fill="rgb(253,253,253)"/><path d=" M 310.7362 151.79448 L 314.23313 151.97853 L 310.7362 152.16258 L 310.7362 151.79448 Z " fill="rgb(166,167,200)"/><path d=" M 270.6135 152.16258 L 271.16564 152.34663 C 270.73688 154.31892 270.38115 156.79308 271.53374 158.60429 L 271.53374 158.60429 L 266.93252 160.99693 C 265.543 159.29864 265.62976 156.08409 266.38037 154.18712 C 266.9008 152.87186 269.42476 152.30688 270.6135 152.16258 L 270.6135 152.16258 Z  M 284.60123 152.53067 Q 288.66345 153.25372 290.67485 156.02761 Q 290.60736 160.3773 288.28221 162.46933 Q 284.64724 161.68712 282.94479 158.97239 L 284.60123 152.53067 Z " fill-rule="evenodd" fill="rgb(253,253,253)"/><path d=" M 148.40491 154.37117 L 148.58896 159.34049 L 148.22086 159.34049 L 148.40491 154.37117 Z  M 266.19632 154.37117 L 266.38037 159.34049 L 266.01227 159.34049 L 266.19632 154.37117 Z  M 293.06748 154.37117 L 293.25153 157.5 L 292.88344 157.5 L 293.06748 154.37117 Z  M 172.69939 155.10736 L 172.88344 158.97239 L 172.51534 158.97239 L 172.69939 155.10736 Z " fill-rule="evenodd" fill="rgb(166,167,200)"/><path d=" M 145.46012 155.84356 L 145.64417 159.34049 L 145.27607 159.34049 L 145.46012 155.84356 Z " fill="rgb(61,64,136)"/><path d=" M 220.55215 156.57975 L 225.88957 156.7638 L 220.55215 156.94785 L 220.55215 156.57975 Z  M 313.31288 156.57975 L 313.49693 161.91718 L 313.12883 161.91718 L 313.31288 156.57975 Z  M 272.82209 156.94785 L 273.19018 158.05215 L 279.6319 158.2362 L 272.82209 158.42025 L 272.82209 156.94785 Z " fill-rule="evenodd" fill="rgb(166,167,200)"/><path d=" M 215.39877 157.68405 C 218.33492 158.93798 221.63423 159.1448 224.78528 158.97239 L 224.78528 158.97239 L 223.12883 160.99693 L 217.60736 161.36503 L 215.58282 160.07669 L 215.39877 157.68405 Z " fill="rgb(253,253,253)"/><path d=" M 220.55215 158.42025 L 225.15337 158.60429 L 220.55215 158.78834 L 220.55215 158.42025 Z  M 302.63804 159.15644 L 302.82209 163.38957 L 302.45399 163.38957 L 302.63804 159.15644 Z " fill-rule="evenodd" fill="rgb(166,167,200)"/><path d=" M 340.18405 159.52454 L 341.47239 159.70859 C 344.42332 162.52098 344.97129 166.88069 344.78528 170.75153 L 344.78528 170.75153 L 343.86503 174.24847 L 342.57669 174.06442 L 340.3681 164.49387 C 339.60886 163.17344 339.5228 161.56042 339.6319 160.07669 L 339.6319 160.07669 L 340.18405 159.52454 Z " fill="rgb(253,253,253)"/><line x1="213.55828" y1="159.89264" x2="212.08589" y2="161.73313"/><path d=" M 213.55828 160.26074 L 215.39877 162.46933 C 217.34601 163.92975 220.16917 163.63311 222.39264 163.20552 L 222.39264 163.20552 L 225.15337 161.91718 L 225.70552 160.99693 L 227.73006 161.54908 L 226.07362 163.57362 L 220.7362 167.80675 L 223.31288 168.17485 L 219.6319 172.96012 L 220.18405 173.14417 L 226.80982 169.09509 Q 226.97634 175.92244 230.30675 179.58589 Q 227.18175 184.55905 219.07975 184.55521 Q 215.09202 183.02147 212.63804 179.95399 Q 208.26585 176.59611 208.58896 168.54294 Q 209.83129 163.15951 213.55828 160.26074 Z " fill="rgb(253,253,253)"/><path d=" M 213.55828 160.26074 L 215.39877 162.46933 C 217.37919 163.95464 220.12111 163.64235 222.39264 163.20552 L 222.39264 163.20552 L 222.39264 163.20552 L 225.15337 161.91718 L 225.70552 160.99693 L 227.73006 161.54908 L 226.07362 163.57362 L 220.7362 167.80675 L 223.31288 168.17485 L 219.6319 172.96012 L 220.18405 173.14417 L 226.80982 169.09509 Q 226.97634 175.92244 230.30675 179.58589 Q 227.18175 184.55905 219.07975 184.55521 Q 215.09202 183.02147 212.63804 179.95399 Q 208.26585 176.59611 208.58896 168.54294 Q 209.83129 163.15951 213.55828 160.26074 Z  M 258.83436 161.36503 L 259.0184 161.91718 C 256.7564 166.15812 255.71799 172.0075 256.73363 176.7173 C 256.97627 177.84252 257.35431 178.94411 257.91668 179.95142 C 259.66151 183.0767 262.33971 183.95286 265.82822 183.45092 L 265.82822 183.45092 L 274.66258 180.50613 C 275.84064 181.9746 275.81452 184.07759 275.58282 185.84356 L 275.58282 185.84356 L 274.66258 187.5 C 272.9709 187.38198 272.37218 188.15019 271.67178 189.47853 C 270.15525 192.35469 271.49008 197.19911 273.19018 199.64724 L 273.19018 199.64724 L 275.21472 200.56748 L 274.29448 200.75153 L 251.65644 186.94785 C 250.9828 184.43058 250.14628 180.27691 252.94479 178.66564 L 252.94479 178.66564 L 253.86503 178.1135 C 254.39374 172.28818 255.80698 166.4232 258.83436 161.36503 L 258.83436 161.36503 Z " fill-rule="evenodd" fill="rgb(253,253,253)"/><path d=" M 225.70552 163.57362 L 224.23313 165.41411 L 225.70552 163.57362 Z  M 250.7362 163.94172 L 252.20859 165.78221 L 250.7362 163.94172 Z " fill-rule="evenodd" fill="rgb(166,167,200)"/><path d=" M 260.30675 164.30982 C 261.62964 166.90259 263.35661 169.28782 265.46012 171.30368 L 265.46012 171.30368 L 268.95706 174.06442 L 267.11656 176.6411 L 269.5092 176.82515 L 272.45399 174.98466 L 275.58282 175.53681 L 274.29448 178.66564 C 270.842 180.64346 266.8202 181.42044 262.88344 181.61043 L 262.88344 181.61043 L 260.1227 179.95399 C 258.23851 177.07651 258.25342 173.29586 258.65031 170.01534 L 258.65031 170.01534 L 260.30675 164.30982 Z " fill="rgb(253,253,253)"/><path d=" M 290.4908 164.30982 L 290.67485 167.07055 L 289.20245 168.17485 C 290.67505 167.50548 290.71007 165.69853 290.4908 164.30982 L 290.4908 164.30982 Z  M 293.06748 166.15031 L 293.25153 169.27914 L 292.88344 169.27914 L 293.06748 166.15031 Z " fill-rule="evenodd" fill="rgb(166,167,200)"/><path d=" M 389.5092 167.6227 L 399.07975 167.6227 Q 402.11656 166.79448 402.94479 168.17485 Q 404.56442 176.97239 400.92025 180.50613 L 396.50307 180.87423 L 394.47853 179.21779 L 393.92638 177.56135 L 389.1411 180.87423 L 388.95706 177.3773 L 393.74233 173.69632 L 393.55828 171.67178 L 389.32515 171.48773 L 389.5092 167.6227 Z " fill="rgb(62,66,137)"/><path d=" M 265.09202 167.9908 L 267.66871 170.93558 L 265.09202 167.9908 Z  M 178.22086 169.09509 L 178.40491 178.4816 L 178.03681 178.4816 L 178.22086 169.09509 Z  M 382.51534 169.09509 L 382.69939 178.1135 L 382.33129 178.1135 L 382.51534 169.09509 Z  M 230.8589 169.46319 L 231.22699 170.93558 L 232.51534 171.11963 L 231.22699 171.30368 C 230.44438 170.95788 230.57001 170.11585 230.8589 169.46319 L 230.8589 169.46319 Z " fill-rule="evenodd" fill="rgb(166,167,200)"/><path d=" M 290.4908 169.46319 L 291.04294 173.69632 C 289.90997 175.15611 284.91578 176.3567 285.52147 173.32822 L 285.52147 173.32822 L 290.4908 169.46319 Z " fill="rgb(253,253,253)"/><path d=" M 233.80368 170.56748 L 234.53988 170.93558 L 235.09202 170.75153 L 231.77914 173.69632 L 234.17178 170.93558 L 233.80368 170.56748 Z  M 256.62577 171.30368 L 256.80982 174.80061 L 256.44172 174.80061 L 256.62577 171.30368 Z  M 258.46626 171.30368 L 258.65031 174.80061 L 258.28221 174.80061 L 258.46626 171.30368 Z " fill-rule="evenodd" fill="rgb(166,167,200)"/><path d=" M 396.50307 171.67178 L 399.6319 171.85583 C 399.99491 173.30784 400.37058 175.62759 398.71166 176.45706 L 398.71166 176.45706 L 396.68712 175.53681 C 395.88385 174.42261 396.13496 172.89391 396.50307 171.67178 L 396.50307 171.67178 Z " fill="rgb(253,253,253)"/><path d=" M 399.81595 171.67178 L 400 175.16871 L 399.6319 175.16871 L 399.81595 171.67178 Z  M 344.23313 173.14417 L 344.41718 174.06442 C 344.18359 174.76518 343.35303 174.73502 342.76074 174.61656 L 342.76074 174.61656 L 342.20859 173.69632 L 342.57669 173.69632 L 342.76074 174.24847 L 344.04908 174.06442 L 344.23313 173.14417 Z " fill-rule="evenodd" fill="rgb(166,167,200)"/><path d=" M 250 173.51227 C 252.00518 173.31822 253.15044 174.05984 252.46669 176.07098 C 251.78862 178.06543 249.05063 178.93169 247.97546 176.6411 L 247.97546 176.6411 L 250 173.51227 Z  M 282.76074 173.88037 L 283.68098 174.06442 L 284.04908 175.90491 C 282.81593 178.70753 279.54664 178.99192 276.87117 178.66564 L 276.87117 178.66564 L 276.68712 177.7454 L 278.71166 174.98466 C 280.11648 174.97625 281.60182 174.72865 282.76074 173.88037 L 282.76074 173.88037 Z " fill-rule="evenodd" fill="rgb(253,253,253)"/><path d=" M 241.90184 176.08896 L 246.13497 176.27301 L 241.90184 176.45706 L 241.90184 176.08896 Z " fill="rgb(166,167,200)"/><path d=" M 290.1227 176.08896 L 291.41104 176.27301 L 292.51534 183.26687 C 289.226 185.39068 285.11176 185.81006 281.28834 185.65951 L 281.28834 185.65951 L 280.3681 183.26687 C 281.6174 178.83753 285.63559 176.16628 290.1227 176.08896 L 290.1227 176.08896 Z " fill="rgb(253,253,253)"/><path d=" M 283.49693 178.29755 L 281.65644 180.50613 L 283.49693 178.29755 Z  M 252.20859 179.03374 L 251.65644 179.95399 L 251.47239 187.1319 L 251.28834 179.95399 L 252.20859 179.03374 Z " fill-rule="evenodd" fill="rgb(166,167,200)"/><path d=" M 277.23926 180.50613 L 278.71166 180.87423 L 279.2638 180.69018 C 278.38314 181.81304 278.37048 183.39063 278.52761 184.73926 L 278.52761 184.73926 L 280.55215 187.5 L 283.12883 187.8681 L 283.68098 187.68405 C 282.52869 188.83634 282.20859 190.53153 282.20859 192.10123 L 282.20859 192.10123 L 283.68098 195.41411 L 281.65644 197.80675 Q 279.39527 199.22656 275.03067 198.54294 Q 273.83436 198.26687 274.11043 196.5184 Q 277.60736 193.94172 278.89571 189.15644 Q 275.82873 186.80317 277.23926 180.50613 Z " fill="rgb(253,253,253)"/><path d=" M 389.1411 183.45092 L 391.16564 184.73926 C 390.051 185.16086 389.17063 186.07685 388.85753 187.23943 C 388.41369 188.88749 388.49383 190.41137 390.6135 190.07669 L 390.6135 190.07669 L 391.90184 189.15644 L 394.66258 186.02761 L 396.87117 185.65951 L 399.6319 187.68405 L 400 190.26074 L 398.34356 194.49387 L 396.68712 193.57362 C 398.19509 192.59224 398.69444 188.65246 396.13497 188.97239 L 396.13497 188.97239 L 393.37423 191.36503 L 391.71779 193.75767 C 387.9028 194.27123 385.7083 191.42213 386.38037 187.68405 C 386.68101 186.01184 387.74448 184.4026 389.1411 183.45092 L 389.1411 183.45092 Z " fill="rgb(62,66,137)"/><path d=" M 292.33129 185.29141 L 293.25153 185.84356 Q 294.90798 195.59816 298.77301 203.14417 Q 295.93252 204.72086 291.22699 204.43252 L 288.46626 203.14417 C 286.99812 201.1088 287.24144 198.38299 289.20102 196.93108 C 290.18713 196.20043 291.33147 195.71449 292.51534 195.41411 L 292.51534 195.41411 L 291.96319 194.12577 L 287.17791 195.96626 C 284.5466 195.10627 284.14185 192.30762 284.41718 189.89264 L 284.41718 189.89264 L 286.44172 187.5 C 288.13813 186.20217 290.23482 185.55587 292.33129 185.29141 L 292.33129 185.29141 Z  M 275.39877 188.97239 L 276.68712 189.15644 C 276.38406 190.99258 275.52726 192.72696 273.92638 193.75767 L 273.92638 193.75767 L 273.37423 193.57362 C 273.06373 192.09871 272.92603 189.97196 274.66258 189.34049 L 274.66258 189.34049 L 275.39877 188.97239 Z  M 285.33742 196.70245 C 285.15206 199.85358 285.61913 203.46553 288.28221 205.53681 L 288.28221 205.53681 L 290.30675 206.45706 Q 290.1411 208.5 288.65031 209.21779 Q 281.61554 214.33027 270.9816 215.84356 Q 267.02454 213.17485 266.38037 207.19325 L 278.71166 201.11963 C 281.40367 200.50566 283.847 199.0761 285.33742 196.70245 L 285.33742 196.70245 Z " fill-rule="evenodd" fill="rgb(253,253,253)"/><path d=" M 310 197.43865 L 310.3681 198.54294 L 313.86503 199.83129 L 314.23313 201.30368 L 313.68098 201.48773 L 311.10429 200.38344 L 309.6319 202.59202 L 306.87117 200.19939 L 306.50307 199.09509 L 307.42331 198.54294 L 309.2638 199.64724 C 310.05581 199.22077 310.10273 198.22623 310 197.43865 L 310 197.43865 Z " fill="rgb(62,66,137)"/><path d=" M 352.33129 198.91104 L 352.51534 199.46319 L 349.7546 199.64724 L 349.7546 199.27914 C 350.5312 199.49094 351.81824 199.76612 352.33129 198.91104 L 352.33129 198.91104 Z " fill="rgb(166,167,200)"/><path d=" M 197.73006 200.01534 Q 201.37211 199.87022 203.80368 200.93558 Q 203.32822 207.85276 205.64417 211.97853 Q 208.49693 215.75153 208.58896 222.28528 Q 207.05286 223.50991 207.85276 227.07055 L 212.26994 229.64724 L 211.71779 231.30368 L 209.8773 231.67178 Q 207.27552 231.32878 206.01227 229.64724 Q 205.78681 226.55982 203.98773 225.04601 Q 200.67485 226.8865 194.78528 226.15031 Q 188.89571 225.41411 185.58282 227.2546 Q 182.73006 223.4816 183.19018 216.39571 L 185.95092 212.89877 C 188.92098 211.35769 191.62678 209.31697 193.86503 206.82515 L 193.86503 206.82515 L 196.62577 200.38344 L 197.73006 200.01534 Z " fill="rgb(253,253,253)"/><path d=" M 202.14724 202.59202 L 202.69939 202.77607 L 201.22699 209.03374 C 201.65847 211.14893 202.46396 213.21314 203.80368 214.92331 L 203.80368 214.92331 L 203.25153 214.73926 L 201.96319 213.81902 C 200.14668 211.62852 200.40181 208.32053 200.8589 205.72086 L 200.8589 205.72086 L 202.14724 202.59202 Z " fill="rgb(62,66,137)"/><path d=" M 251.10429 202.96012 Q 258.90692 203.25566 265.27607 204.98466 Q 264.156 206.07318 264.17178 208.29755 L 264.90798 210.50613 Q 261.87117 211.8865 256.62577 211.05828 Q 254.65031 208.61656 254.04908 204.80061 L 252.76074 205.35276 C 252.76814 208.16254 253.47946 211.17901 255.88957 212.89877 L 255.88957 212.89877 L 261.04294 213.26687 C 262.14615 211.88308 264.32419 212.19279 265.82822 212.53067 L 265.82822 212.53067 L 266.38037 213.45092 C 264.50973 215.88793 260.09822 216.8004 257.59676 215.05661 C 254.28952 212.75111 248.77406 209.33313 249.44785 204.61656 L 249.44785 204.61656 L 250.3681 203.32822 L 251.10429 202.96012 Z " fill="rgb(253,253,253)"/><path d=" M 279.07975 202.96012 C 279.67204 202.84166 280.50261 202.8115 280.7362 203.51227 L 280.7362 203.51227 L 280.18405 204.43252 Q 275.21702 205.17101 271.53374 207.19325 Q 272.09904 209.57274 273.92638 210.69018 L 282.76074 208.1135 L 283.31288 209.03374 C 280.44942 210.79943 277.21807 211.89701 273.92638 212.53067 L 273.92638 212.53067 L 270.79755 209.76994 Q 269.7546 208.78834 270.06135 206.45706 Q 273.59348 203.73151 279.07975 202.96012 Z " fill="rgb(62,66,137)"/><path d=" M 344.96933 203.32822 L 348.46626 203.51227 L 344.96933 203.69632 L 344.96933 203.32822 Z " fill="rgb(166,167,200)"/><path d=" M 243.00613 204.06442 L 247.60736 204.24847 L 247.23926 206.08896 C 248.31568 209.99804 250.73993 213.2999 254.41718 215.10736 L 254.41718 215.10736 L 258.28221 217.5 Q 257.17791 218.60429 257.54601 221.18098 Q 258.77759 228.04756 262.51534 232.40798 L 266.56442 232.77607 L 272.82209 231.30368 L 271.90184 232.59202 C 269.16599 234.58685 268.55649 238.87086 270.32017 241.62768 C 270.96942 242.64254 271.8226 243.51658 272.82209 244.18712 L 272.82209 244.18712 L 275.95092 246.21166 L 273.92638 248.60429 Q 272.36904 250.35984 268.77301 250.07669 Q 259.47853 248.69632 254.96933 242.53067 Q 251.91207 235.83333 246.68712 231.30368 Q 244.90798 229.03374 240.42945 229.46319 Q 237.39264 229.92331 236.19632 228.54294 L 234.17178 224.30982 L 233.98773 225.96626 C 233.93038 227.17061 234.02552 228.43385 234.55713 229.53796 C 235.59135 231.68595 238.00172 231.08125 240.04834 231.59277 C 244.35312 232.66867 249.283 235.29898 248.71166 240.32209 L 248.71166 240.32209 L 246.31902 243.45092 C 244.93097 243.18399 242.99617 243.03251 242.08589 244.37117 L 242.08589 244.37117 L 241.16564 246.39571 L 237.11656 246.02761 L 234.90798 247.8681 C 234.48528 247.10724 233.37745 247.32156 232.69939 247.5 L 232.69939 247.5 L 227.91411 250.81288 L 228.09816 250.26074 L 229.20245 246.21166 L 228.28221 244.92331 L 226.07362 244.55521 L 224.96933 244.92331 C 224.71825 243.06859 223.94879 241.26135 222.39264 240.13804 L 222.39264 240.13804 L 218.52761 238.84969 C 218.8462 237.68153 219.25408 235.75184 217.97546 234.98466 L 217.97546 234.98466 L 215.58282 234.06442 L 215.95092 230.75153 Q 214.31288 229.99693 214.11043 227.80675 Q 218.14198 225.58063 218.89571 220.07669 L 217.97546 218.78834 L 217.42331 218.60429 L 219.6319 216.7638 C 219.37139 215.37318 219.23368 213.45579 220.55215 212.53067 L 220.55215 212.53067 L 221.47239 211.97853 C 223.53086 209.94115 224.74318 207.23699 225.33742 204.43252 L 225.33742 204.43252 L 230.1227 209.58589 L 230.67485 209.76994 C 230.98749 210.84682 231.44095 212.6657 230.30675 213.45092 L 230.30675 213.45092 L 230.8589 214.37117 C 232.97594 214.79457 233.35001 211.93814 234.24625 210.5806 C 235.32847 208.94135 236.67184 207.47959 238.22086 206.27301 L 238.22086 206.27301 L 243.00613 204.06442 Z " fill="rgb(253,253,253)"/><path d=" M 204.35583 204.43252 L 204.53988 207.92945 L 204.17178 207.92945 L 204.35583 204.43252 Z " fill="rgb(166,167,200)"/><path d=" M 298.95706 205.16871 L 299.8773 205.72086 L 301.71779 209.76994 C 299.40183 211.27138 296.49451 211.54757 293.80368 211.42638 L 293.80368 211.42638 L 291.77914 210.13804 Q 291.28221 207.24847 292.69939 206.27301 Q 296.67768 206.57032 298.95706 205.16871 Z " fill="rgb(253,253,253)"/><path d=" M 200.67485 206.6411 L 200.8589 210.87423 L 200.4908 210.87423 L 200.67485 206.6411 Z  M 237.48466 206.6411 L 236.01227 208.4816 L 237.48466 206.6411 Z " fill-rule="evenodd" fill="rgb(166,167,200)"/><path d=" M 315.88957 206.6411 C 318.75959 206.0671 317.23587 209.78968 315.88957 210.69018 L 315.88957 210.69018 L 313.31288 211.42638 C 311.65532 210.87386 311.45932 209.0726 311.65644 207.56135 L 311.65644 207.56135 L 312.20859 207.3773 L 313.68098 209.58589 L 314.96933 209.03374 L 315.88957 206.6411 Z " fill="rgb(62,66,137)"/><path d=" M 356.01227 208.4816 L 357.48466 208.84969 L 363.55828 209.76994 L 363.92638 212.71472 L 363.37423 212.53067 C 361.43962 212.4349 359.77668 213.22452 359.5092 215.29141 L 359.5092 215.29141 L 358.40491 218.2362 Q 358.8483 221.10569 360.79755 222.46933 Q 362.73006 223.1135 362.08589 226.33436 Q 361.16564 226.8865 361.71779 228.91104 Q 362.18558 232.30828 364.47853 233.88037 L 368.34356 237.0092 C 372.31988 241.36831 373.46403 247.48655 373.49693 253.20552 L 373.49693 253.20552 L 372.57669 254.49387 C 370.87706 255.5904 368.54503 255.26213 366.68712 254.86196 L 366.68712 254.86196 L 363.00613 254.12577 Q 362.17791 254.40184 362.45399 255.78221 Q 366.0938 257.47982 371.84049 257.07055 L 374.41718 255.96626 L 377.91411 257.6227 Q 378.2592 260.54448 376.99387 261.85583 Q 372.39264 263.88037 369.2638 267.3773 Q 366.90184 270.16871 361.53374 269.95399 L 357.30061 266.82515 C 357.32005 264.1028 356.97052 261.2805 355.73401 258.82121 C 355.00103 257.36341 353.49976 256.71355 353.16095 255.04457 C 352.66771 252.61492 353.81974 250.23056 353.2758 247.77482 C 352.84845 245.84546 350.98701 245.1323 350.87471 242.97498 C 350.77931 241.14216 351.01432 239.01679 352.18304 237.52813 C 353.47766 235.87913 355.78558 236.40847 355.46012 233.69632 L 355.46012 233.69632 L 354.53988 233.14417 C 354.41366 235.03748 353.00773 235.82561 351.22699 235.72086 L 351.22699 235.72086 L 349.93865 233.69632 C 356.30896 227.81776 356.93471 218.2368 356.19632 210.13804 L 356.19632 210.13804 L 356.01227 208.4816 Z " fill="rgb(253,253,253)"/><path d=" M 250.7362 208.84969 L 253.68098 212.16258 L 250.7362 208.84969 Z  M 356.01227 209.95399 L 356.19632 218.60429 L 355.82822 218.60429 L 356.01227 209.95399 Z  M 271.34969 210.32209 L 272.82209 212.16258 L 271.34969 210.32209 Z " fill-rule="evenodd" fill="rgb(166,167,200)"/><path d=" M 289.7546 210.69018 L 290.8589 212.16258 L 293.25153 213.45092 Q 292.04894 220.53054 288.65031 225.41411 Q 284.19018 225.45706 282.57669 222.65337 L 284.04908 217.5 L 283.49693 216.57975 C 280.76474 216.23823 280.63455 221.33415 280.7362 223.02147 L 280.7362 223.02147 L 283.49693 226.15031 L 288.09816 227.80675 L 287.17791 230.19939 C 285.29103 230.5025 282.84269 230.43893 282.02454 228.3589 L 282.02454 228.3589 L 275.95092 223.38957 C 277.56669 219.94794 279.85646 216.83546 282.76074 214.37117 L 282.76074 214.37117 L 289.7546 210.69018 Z " fill="rgb(253,253,253)"/><path d=" M 310 210.69018 L 312.94479 214.00307 L 310 210.69018 Z  M 257.36196 211.05828 L 261.22699 211.24233 L 257.36196 211.42638 L 257.36196 211.05828 Z  M 301.90184 211.79448 L 301.71779 212.34663 L 301.53374 215.47546 L 301.34969 212.34663 L 301.90184 211.79448 Z " fill-rule="evenodd" fill="rgb(166,167,200)"/><path d=" M 302.26994 211.79448 L 303.55828 212.34663 L 305.39877 215.65951 C 304.64157 216.27904 302.50353 216.8079 301.82995 215.82343 C 301.13465 214.80722 301.41675 213.45044 301.71779 212.34663 L 301.71779 212.34663 L 302.26994 211.79448 Z " fill="rgb(253,253,253)"/><path d=" M 298.95706 212.53067 L 299.8773 213.08282 L 299.69325 215.84356 L 299.32515 212.89877 L 298.95706 212.53067 Z  M 257.36196 212.89877 L 261.22699 213.08282 L 257.36196 213.26687 L 257.36196 212.89877 Z " fill-rule="evenodd" fill="rgb(166,167,200)"/><path d=" M 298.22086 212.89877 L 299.5092 213.08282 C 299.23427 214.9859 299.41438 217.33741 301.53374 218.05215 L 301.53374 218.05215 L 302.82209 218.2362 Q 303.41367 224.71735 301.90184 229.09509 Q 297.42843 228.67076 295.09202 230.38344 L 295.27607 231.67178 L 296.38037 232.03988 C 299.06927 232.18331 302.11231 231.83576 304.11043 229.83129 L 304.11043 229.83129 L 304.29448 231.11963 C 304.20857 232.7518 303.22905 233.58813 301.76668 234.06729 C 299.22457 234.90024 296.34147 234.45828 293.80368 233.88037 L 293.80368 233.88037 L 292.51534 233.32822 Q 291.44451 230.53402 291.77914 226.33436 Q 292.7111 218.80006 295.64417 213.26687 Q 297.66871 213.81902 298.22086 212.89877 Z " fill="rgb(253,253,253)"/><path d=" M 364.11043 212.89877 L 364.29448 216.39571 L 363.92638 216.39571 L 363.74233 214.37117 L 363.19018 214.55521 L 364.11043 212.89877 Z  M 268.77301 213.63497 L 270.2454 215.47546 L 268.77301 213.63497 Z  M 353.43558 214.37117 L 353.98773 214.55521 L 353.80368 216.57975 L 352.51534 215.65951 L 353.61963 216.02761 L 353.43558 214.37117 Z " fill-rule="evenodd" fill="rgb(166,167,200)"/><path d=" M 363.74233 214.37117 Q 363.21197 227.96901 371.28834 232.96012 Q 379.7546 238.84969 377.91411 255.04601 L 376.99387 255.23006 L 374.96933 253.94172 C 376.22551 252.68553 375.8005 250.50838 375.47821 248.96964 C 374.29286 243.31027 372.05817 237.92199 367.79141 233.88037 L 367.79141 233.88037 L 364.29448 230.75153 C 363.16598 228.26884 364.32348 225.86602 364.00403 223.35794 C 363.80373 221.7854 362.2668 221.89436 361.40312 220.8975 C 360.52307 219.88174 360.48041 218.39739 360.6135 217.1319 L 360.6135 217.1319 L 363.74233 214.37117 Z " fill="rgb(253,253,253)"/><line x1="311.84049" y1="214.73926" x2="313.31288" y2="216.57975"/><path d=" M 267.30061 215.10736 C 268.32762 216.64788 269.94444 217.60881 271.71779 218.05215 L 271.71779 218.05215 L 277.97546 216.21166 L 277.79141 216.7638 C 275.45484 218.5081 274.40319 221.30736 274.11043 224.12577 L 274.11043 224.12577 L 274.47853 224.86196 Q 271.35388 226.70664 266.19632 226.5184 Q 266.17331 221.94018 263.61963 219.89264 L 262.33129 220.81288 Q 262.79934 225.86631 265.46012 228.72699 Q 271.76593 228.40703 276.13497 226.15031 L 277.42331 227.07055 Q 272.62137 230.91891 263.61963 230.56748 Q 259.65986 226.61315 259.7546 218.60429 L 267.30061 215.10736 Z " fill="rgb(253,253,253)"/><path d=" M 267.66871 215.10736 L 269.1411 216.94785 L 267.66871 215.10736 Z  M 305.95092 217.31595 L 306.13497 223.38957 L 305.76687 223.38957 L 305.95092 217.31595 Z " fill-rule="evenodd" fill="rgb(166,167,200)"/><path d=" M 306.31902 217.31595 L 307.23926 217.8681 C 309.76853 221.5234 312.80676 224.81993 316.25767 227.6227 L 316.25767 227.6227 L 316.80982 227.80675 C 314.32131 229.26967 311.37694 229.76531 308.52761 229.83129 L 308.52761 229.83129 L 306.87117 228.54294 C 305.77282 227.70303 305.90846 226.05922 306.13497 224.86196 L 306.13497 224.86196 L 306.31902 217.31595 Z " fill="rgb(253,253,253)"/><path d=" M 303.00613 218.05215 L 303.19018 221.18098 L 302.82209 221.18098 L 303.00613 218.05215 Z  M 353.43558 218.78834 L 353.61963 219.70859 L 353.43558 221.36503 L 352.88344 219.34049 L 353.43558 218.78834 Z  M 316.62577 219.52454 C 317.2133 220.78354 318.61177 223.63763 320.4908 222.65337 L 320.4908 222.65337 L 320.30675 223.20552 L 316.62577 219.52454 Z  M 226.44172 223.20552 L 227.36196 225.96626 L 226.62577 225.59816 L 226.44172 223.20552 Z  M 314.41718 225.41411 L 316.25767 227.6227 L 314.41718 225.41411 Z " fill-rule="evenodd" fill="rgb(166,167,200)"/><path d=" M 227.54601 227.2546 C 229.07596 231.16722 231.40476 234.75202 234.53988 237.56135 L 234.53988 237.56135 L 237.11656 237.92945 L 244.11043 235.35276 L 242.26994 237.56135 C 239.62107 239.48538 235.98831 240.86964 232.91651 239.32276 C 229.00271 237.35186 227.61015 231.10398 227.54601 227.2546 L 227.54601 227.2546 Z " fill="rgb(62,66,137)"/><path d=" M 191.47239 227.6227 L 196.44172 227.80675 L 195.52147 228.3589 C 194.79054 227.14068 192.95051 228.16047 191.875 228.11158 C 191.55323 228.09695 191.3096 227.94829 191.47239 227.6227 L 191.47239 227.6227 Z " fill="rgb(166,167,200)"/><path d=" M 189.2638 227.9908 L 195.33742 228.17485 C 191.84887 228.68847 188.38591 229.8443 185.58282 232.03988 L 185.58282 232.03988 L 185.39877 231.48773 L 186.31902 228.72699 L 189.2638 227.9908 Z  M 278.34356 228.72699 C 279.56444 228.63889 280.98592 228.79242 281.7916 229.83416 C 282.69135 230.99753 282.31409 232.20672 284.21259 232.47453 C 285.91588 232.7148 288.1892 232.2473 289.20245 230.75153 L 289.20245 230.75153 L 289.7546 229.09509 C 291.78008 233.02203 292.0698 238.51616 288.16102 241.21316 C 287.394 241.74239 285.60478 242.8719 284.60123 242.71472 C 284.11157 242.63803 283.67404 242.36285 283.22055 242.16289 C 280.1785 240.82154 277.28768 239.24715 274.66258 237.19325 L 274.66258 237.19325 L 273.74233 237.7454 C 273.4595 239.15954 274.82841 240.14366 275.80318 240.99897 C 278.525 243.38721 282.16673 244.32488 285.70552 244.55521 L 285.70552 244.55521 L 289.3865 242.34663 L 289.57055 243.63497 C 289.09746 245.29181 288.19225 246.8139 286.80982 247.8681 L 286.80982 247.8681 L 284.60123 248.2362 Q 277.37001 245.71281 272.26994 241.05828 Q 270.88957 240.23006 271.16564 237.7454 Q 273.27198 232.67382 277.23926 229.46319 L 278.34356 228.72699 Z " fill-rule="evenodd" fill="rgb(253,253,253)"/><path d=" M 283.49693 229.46319 C 284.0069 230.48313 285.273 230.5241 286.25767 230.38344 L 286.25767 230.38344 L 284.23313 230.56748 L 283.49693 229.46319 Z " fill="rgb(166,167,200)"/><path d=" M 318.83436 229.46319 L 325.27607 233.69632 Q 324.25358 241.71268 327.11656 245.84356 Q 328.68899 254.76193 333.92638 260.01534 L 339.2638 262.40798 L 341.84049 267.56135 L 339.07975 268.1135 Q 338.61963 266.54908 336.13497 267.0092 Q 335.21472 268.29755 332.08589 267.3773 Q 332.58052 264.49003 330.9816 263.69632 L 327.48466 263.51227 C 327.69786 262.10519 327.74698 260.30403 326.56442 259.27914 L 326.56442 259.27914 L 324.17178 259.09509 L 324.53988 256.15031 L 323.25153 254.49387 L 322.51534 254.86196 C 322.68589 253.47216 322.63667 251.74333 321.41104 250.81288 L 321.41104 250.81288 L 318.28221 250.62883 C 318.10377 249.95077 317.88945 248.84294 318.65031 248.42025 L 318.65031 248.42025 L 317.17791 245.47546 L 319.3865 242.89877 L 317.17791 241.05828 L 317.36196 240.50613 C 319.15842 240.73069 319.83377 238.21275 318.28221 237.3773 L 318.28221 237.3773 L 319.0184 235.16871 C 317.35249 233.85107 318.25012 231.0613 318.83436 229.46319 L 318.83436 229.46319 Z " fill="rgb(253,253,253)"/><path d=" M 196.62577 229.83129 L 199.7546 230.01534 L 196.62577 230.19939 L 196.62577 229.83129 Z  M 262.88344 229.83129 C 263.64037 231.15815 265.46957 231.00906 266.74847 230.75153 L 266.74847 230.75153 L 263.61963 230.93558 L 262.88344 229.83129 Z  M 316.25767 229.83129 L 316.80982 230.01534 L 316.62577 233.51227 C 316.65072 232.3644 316.79077 230.89749 316.25767 229.83129 L 316.25767 229.83129 Z  M 318.46626 229.83129 L 318.65031 233.32822 L 318.28221 233.32822 L 318.46626 229.83129 Z " fill-rule="evenodd" fill="rgb(166,167,200)"/><path d=" M 194.78528 230.19939 C 197.16819 229.72517 200.328 229.37257 202.33129 231.11963 L 202.33129 231.11963 L 203.06748 235.16871 L 202.51534 234.98466 L 199.20245 234.61656 C 194.57444 235.93496 190.29747 238.39638 187.23926 242.16258 L 187.23926 242.16258 L 186.68712 243.08282 L 186.13497 242.89877 Q 185.16059 238.71978 185.39877 233.32822 Q 189.46131 231.13309 194.78528 230.19939 Z  M 315.88957 230.19939 L 316.44172 230.38344 L 316.80982 234.80061 L 315.33742 235.90491 L 316.80982 238.4816 L 314.23313 239.58589 L 314.04908 240.13804 L 312.39264 239.95399 L 310.18405 231.85583 L 315.88957 230.19939 Z  M 306.31902 230.56748 L 307.97546 231.48773 L 311.65644 243.63497 Q 305.83584 249.04136 293.43558 247.8681 Q 291.54131 246.44949 291.41104 243.26687 L 291.96319 243.08282 Q 292.3773 245.42945 294.17178 246.39571 Q 302.00347 245.39304 307.60736 242.16258 Q 307.92068 238.35232 306.31902 236.45706 L 305.03067 237.0092 Q 304.80061 239.6319 305.76687 241.05828 Q 300.99395 243.46327 294.53988 244.18712 L 293.06748 241.97853 L 291.96319 242.71472 L 291.77914 241.79448 L 293.06748 235.72086 L 301.90184 236.08896 C 303.50071 235.68327 304.92301 234.77096 305.76687 233.32822 L 305.76687 233.32822 L 306.31902 230.56748 Z " fill-rule="evenodd" fill="rgb(253,253,253)"/><path d=" M 364.84663 231.30368 L 366.31902 233.14417 L 364.84663 231.30368 Z  M 183.37423 232.03988 L 183.55828 235.90491 L 183.19018 235.90491 L 183.37423 232.03988 Z  M 213.92638 232.40798 C 213.33062 232.74981 213.0996 233.25523 213.74233 233.69632 L 213.74233 233.69632 L 213.55828 234.61656 L 213.00613 233.32822 L 213.92638 232.40798 Z  M 263.61963 232.40798 L 266.74847 232.59202 L 263.61963 232.77607 L 263.61963 232.40798 Z " fill-rule="evenodd" fill="rgb(166,167,200)"/><path d=" M 213.55828 233.14417 L 213.37423 233.69632 L 214.11043 235.53681 L 213.37423 238.84969 L 213.92638 239.76994 C 214.6602 239.67821 215.44342 239.85375 215.58282 240.69018 L 215.58282 240.69018 L 216.50307 242.71472 C 217.03206 243.58601 218.19242 243.58486 219.07975 243.45092 L 219.07975 243.45092 L 220.55215 241.61043 L 221.84049 242.16258 C 221.75622 243.93228 222.03942 245.93939 223.49693 247.1319 L 223.49693 247.1319 L 226.80982 246.7638 L 226.99387 247.31595 L 224.04908 253.94172 L 224.60123 254.86196 C 218.93702 254.25197 213.56699 251.78631 210.79755 246.57975 L 210.79755 246.57975 L 209.5092 244.92331 L 209.32515 250.26074 Q 210.69566 256.98839 215.03067 260.75153 Q 217.05521 262.59202 221.28834 262.22393 L 220.92025 261.48773 L 215.21472 258.72699 C 213.65862 256.86553 212.91593 254.47813 212.63804 252.10123 L 212.63804 252.10123 L 214.29448 253.38957 C 217.3148 256.13131 221.91462 256.09693 225.70552 255.59816 L 225.70552 255.59816 L 225.52147 255.04601 L 225.70552 254.49387 L 231.22699 250.81288 L 231.41104 256.15031 Q 230.76687 259.92331 228.28221 261.85583 Q 226.5227 265.43374 220.92025 265.16871 L 212.45399 262.96012 L 212.45399 263.32822 L 220.3681 267.56135 C 220.40469 268.69535 220.33909 269.84217 220.07504 270.94928 C 219.04738 275.25811 213.97023 277.71308 209.8773 277.68405 L 209.8773 277.68405 L 204.90798 275.65951 L 212.26994 269.03374 L 212.63804 265.72086 L 211.90184 266.08896 Q 210.91586 269.52016 208.03681 271.05828 Q 205.6017 274.88084 198.83436 274.37117 Q 196.06748 274.19325 194.96933 272.34663 Q 191.82209 268.8681 191.65644 262.40798 Q 195.14743 251.35909 201.04294 242.71472 L 203.61963 241.97853 C 204.22155 248.4289 205.88548 254.93646 209.5092 260.38344 L 209.5092 260.38344 L 210.06135 260.19939 Q 206.44831 251.48114 204.90798 240.69018 Q 205.46012 239.21779 208.03681 239.76994 L 209.1411 240.13804 L 209.69325 239.95399 C 210.43126 245.23894 214.13398 248.96968 219.44785 249.70859 L 219.44785 249.70859 L 218.71166 248.60429 L 212.26994 242.89877 C 209.85399 240.57575 210.99101 234.91274 213.55828 233.14417 L 213.55828 233.14417 Z " fill="rgb(253,253,253)"/><path d=" M 298.58896 233.88037 L 302.08589 234.06442 L 298.58896 234.24847 L 298.58896 233.88037 Z  M 367.79141 233.88037 L 370.3681 236.82515 L 367.79141 233.88037 Z " fill-rule="evenodd" fill="rgb(166,167,200)"/><path d=" M 207.30061 234.24847 L 208.58896 234.43252 L 208.95706 237.7454 L 206.93252 237.92945 L 206.01227 237.3773 C 205.8563 236.47267 205.7846 235.27641 206.56442 234.61656 L 206.56442 234.61656 L 207.30061 234.24847 Z  M 327.30061 234.61656 L 332.26994 236.6411 C 332.52692 237.59768 332.82326 238.544 333.16354 239.4745 C 334.90068 244.22488 338.16978 250.87206 344.04908 250.62883 L 344.04908 250.62883 L 343.49693 255.59816 Q 337.75998 254.34125 334.11043 250.99693 Q 334.03528 246.83896 331.34969 245.29141 L 327.85276 242.16258 C 326.50764 239.92116 326.7649 237.05475 327.30061 234.61656 L 327.30061 234.61656 Z " fill-rule="evenodd" fill="rgb(253,253,253)"/><path d=" M 355.27607 234.61656 L 351.59509 238.66564 L 355.27607 234.61656 Z  M 337.60736 234.98466 L 341.47239 235.16871 L 337.60736 235.35276 L 337.60736 234.98466 Z  M 243.74233 235.35276 L 244.66258 235.53681 L 242.82209 237.0092 C 243.39831 236.70414 244.31102 236.08393 243.74233 235.35276 L 243.74233 235.35276 Z  M 297.48466 235.72086 L 302.08589 235.90491 L 297.48466 236.08896 L 297.48466 235.72086 Z " fill-rule="evenodd" fill="rgb(166,167,200)"/><path d=" M 347.17791 235.72086 L 348.09816 236.27301 L 349.20245 244.73926 Q 347.61287 247.19876 343.49693 247.1319 Q 339.7546 245.53681 337.79141 242.16258 Q 335.28834 241.16871 335.58282 237.3773 L 336.50307 237.19325 C 337.74445 238.78931 340.45844 238.03799 342.02454 237.56135 L 342.02454 237.56135 L 347.17791 235.72086 Z " fill="rgb(253,253,253)"/><path d=" M 305.95092 236.45706 Q 308.02805 237.87686 307.60736 241.79448 Q 302.2877 245.49322 293.80368 246.02761 Q 291.92136 245.33324 292.14724 242.53067 L 293.43558 242.34663 L 294.53988 244.55521 L 305.76687 241.42638 L 305.03067 237.0092 L 305.95092 236.45706 Z " fill="rgb(62,66,137)"/><line x1="230.8589" y1="237.19325" x2="232.69939" y2="239.40184"/><line x1="382.88344" y1="238.66564" x2="381.41104" y2="240.50613"/><path d=" M 198.09816 239.03374 L 192.76074 244.73926 Q 189.9471 247.8152 188.52761 252.28528 Q 187.20859 251.39571 187.60736 248.78834 L 195.15337 240.50613 L 198.09816 239.03374 Z " fill="rgb(253,253,253)"/><line x1="177.85276" y1="239.40184" x2="179.32515" y2="241.24233"/><path d=" M 181.90184 239.40184 L 183.92638 241.05828 L 184.11043 240.50613 L 184.29448 241.79448 L 181.90184 239.40184 Z  M 194.41718 240.87423 L 191.47239 244.18712 L 194.41718 240.87423 Z " fill-rule="evenodd" fill="rgb(166,167,200)"/><line x1="180.42945" y1="242.34663" x2="184.84663" y2="247.1319"/><path d=" M 328.40491 242.71472 L 329.8773 244.55521 L 328.40491 242.71472 Z  M 194.41718 243.08282 L 192.94479 244.92331 L 194.41718 243.08282 Z  M 338.71166 243.08282 L 341.65644 246.39571 L 338.71166 243.08282 Z  M 213.19018 243.81902 L 215.03067 246.02761 L 213.19018 243.81902 Z " fill-rule="evenodd" fill="rgb(166,167,200)"/><path d=" M 209.5092 244.92331 L 215.39877 251.54908 C 217.79238 253.89718 221.15156 254.82413 224.41718 255.04601 L 224.41718 255.04601 L 218.71166 255.23006 C 216.31042 254.65008 214.05002 253.47004 212.45399 251.54908 L 212.45399 251.54908 L 212.26994 252.46933 C 212.70446 255.23656 213.87552 257.9026 216.13497 259.64724 L 216.13497 259.64724 L 220.3681 261.67178 L 217.97546 261.85583 C 210.93463 259.94975 209.00613 251.19989 209.5092 244.92331 L 209.5092 244.92331 Z " fill="rgb(62,66,137)"/><path d=" M 331.34969 245.29141 L 332.82209 247.1319 L 331.34969 245.29141 Z  M 338.71166 245.65951 L 340.55215 247.8681 L 338.71166 245.65951 Z " fill-rule="evenodd" fill="rgb(166,167,200)"/><path d=" M 329.5092 246.39571 L 331.16564 247.68405 C 331.60202 253.84567 337.16579 256.03991 342.57669 257.2546 L 342.57669 257.2546 L 340.55215 260.38344 C 337.87098 259.97268 335.23636 258.92268 333.37423 256.8865 L 333.37423 256.8865 L 329.5092 246.39571 Z  M 277.97546 247.1319 C 280.38343 249.26392 283.67658 249.97848 286.80982 250.07669 L 286.80982 250.07669 L 290.4908 247.1319 L 291.96319 249.34049 C 294.58019 250.9216 298.03973 250.31701 300.91222 249.9613 C 304.10425 249.56601 307.24729 248.8614 310 247.1319 L 310 247.1319 L 310.55215 249.15644 Q 308.93865 256.0092 303.37423 258.91104 Q 299.78124 263.78431 291.96319 264.43252 L 288.28221 260.01534 C 287.78774 258.85441 286.42457 258.76446 285.33742 258.91104 L 285.33742 258.91104 L 283.49693 261.48773 L 281.28834 257.07055 Q 277.96231 256.87336 276.87117 258.91104 Q 275.71166 257.12577 276.31902 253.57362 Q 277.43909 252.4851 277.42331 250.26074 L 276.68712 248.42025 L 277.97546 247.1319 Z " fill-rule="evenodd" fill="rgb(253,253,253)"/><path d=" M 350.8589 247.5 L 351.41104 247.68405 L 351.22699 255.23006 C 351.39639 252.83539 351.82667 249.78969 350.8589 247.5 L 350.8589 247.5 Z  M 378.09816 247.5 L 378.28221 255.41411 L 377.36196 255.59816 L 377.36196 255.23006 L 377.91411 255.04601 L 378.09816 247.5 Z  M 293.80368 247.8681 L 299.5092 248.05215 L 293.80368 248.2362 L 293.80368 247.8681 Z " fill-rule="evenodd" fill="rgb(166,167,200)"/><path d=" M 350.4908 247.8681 L 351.04294 248.05215 C 350.41373 251.9102 350.27395 257.03979 353.98773 259.46319 L 353.98773 259.46319 L 350.1227 264.43252 C 347.83785 266.03854 345.13123 266.93534 342.39264 267.3773 L 342.39264 267.3773 L 342.20859 261.30368 C 345.57144 258.46957 346.47409 253.90392 346.44172 249.70859 L 346.44172 249.70859 L 350.4908 247.8681 Z  M 194.78528 248.2362 L 194.23313 249.15644 L 190 257.80675 L 189.81595 256.15031 C 190.60862 253.05537 192.21681 250.1934 194.78528 248.2362 L 194.78528 248.2362 Z " fill-rule="evenodd" fill="rgb(253,253,253)"/><line x1="212.45399" y1="248.2362" x2="215.39877" y2="251.54908"/><path d=" M 379.93865 248.60429 L 380.1227 256.8865 L 379.7546 256.8865 L 379.93865 248.60429 Z " fill="rgb(61,64,136)"/><path d=" M 315.15337 249.34049 Q 317.69755 252.50183 317.73006 258.17485 Q 320.13365 258.16389 321.22699 259.46319 Q 321.35736 261.90951 322.88344 262.96012 Q 324.92112 262.76293 325.64417 263.88037 Q 326.2489 267.32472 328.58896 269.03374 Q 322.31125 278.40021 308.52761 280.26074 Q 303.90009 279.18273 301.71779 275.65951 Q 298.25153 271.94785 298.77301 264.24847 Q 304.85016 262.96365 308.15951 258.91104 L 314.41718 269.95399 L 314.60123 269.03374 C 311.98163 264.7695 311.26121 259.59922 311.28834 254.67791 L 311.28834 254.67791 L 315.15337 249.34049 Z " fill="rgb(253,253,253)"/><path d=" M 353.06748 249.34049 L 353.25153 255.04601 L 352.88344 255.04601 L 353.06748 249.34049 Z  M 296.38037 249.70859 L 299.5092 249.89264 L 296.38037 250.07669 L 296.38037 249.70859 Z  M 308.52761 253.75767 L 304.84663 257.80675 L 308.52761 253.75767 Z  M 224.96933 254.49387 L 225.52147 254.67791 L 225.88957 255.41411 L 222.02454 255.59816 L 222.02454 255.23006 C 222.99668 255.4544 224.48232 255.63022 224.96933 254.49387 L 224.96933 254.49387 Z  M 368.15951 254.86196 L 371.65644 255.04601 L 368.15951 255.23006 L 368.15951 254.86196 Z " fill-rule="evenodd" fill="rgb(166,167,200)"/><path d=" M 358.95706 257.43865 C 361.23104 257.33261 363.68773 257.91294 364.66258 260.19939 L 364.66258 260.19939 L 364.84663 261.11963 L 367.42331 260.75153 C 368.90888 260.7533 370.50153 261.03415 371.65644 262.03988 L 371.65644 262.03988 L 371.10429 262.96012 L 364.47853 262.59202 L 363.00613 265.90491 L 361.71779 265.72086 C 361.63197 264.14749 361.87246 262.34878 363.19018 261.30368 L 363.19018 261.30368 L 358.77301 258.72699 L 358.95706 257.43865 Z " fill="rgb(62,66,137)"/><path d=" M 213.19018 258.54294 L 215.03067 260.75153 L 213.19018 258.54294 Z  M 288.28221 260.01534 L 289.7546 261.85583 L 288.28221 260.01534 Z  M 220.55215 261.48773 L 221.47239 262.03988 L 218.71166 262.22393 L 218.71166 261.85583 L 220.55215 261.48773 Z  M 342.02454 261.48773 L 342.20859 267.56135 L 341.47239 267.19325 C 343.10407 265.88445 342.48659 263.17075 342.02454 261.48773 L 342.02454 261.48773 Z " fill-rule="evenodd" fill="rgb(166,167,200)"/><path d=" M 229.7546 262.96012 C 243.05918 271.68117 259.11878 275.11539 274.80645 275.98726 C 282.71142 276.42659 290.9103 276.60272 298.58896 274.37117 L 298.58896 274.37117 L 302.63804 279.52454 L 304.66258 280.81288 Q 290.55982 284.19479 272.08589 283.20552 Q 242.72566 280.90931 222.20859 269.76994 Q 221.65644 267.56135 222.76074 267.0092 Q 227.02381 265.7508 229.7546 262.96012 Z " fill="rgb(253,253,253)"/><line x1="356.01227" y1="268.1135" x2="357.48466" y2="269.95399"/><line x1="210.6135" y1="268.4816" x2="208.77301" y2="270.69018"/><path d=" M 330.6135 269.21779 L 331.16564 269.40184 C 331.07041 270.38593 331.1731 271.57195 332.08589 272.16258 L 332.08589 272.16258 L 332.63804 272.34663 L 323.98773 275.84356 L 324.35583 275.10736 C 326.77864 273.84393 328.88018 272.02481 330.42945 269.76994 L 330.42945 269.76994 L 330.6135 269.21779 Z " fill="rgb(253,253,253)"/><line x1="220.18405" y1="274.37117" x2="218.34356" y2="276.57975"/><path d=" M 275.39877 275.84356 L 285.52147 276.02761 L 275.39877 276.21166 L 275.39877 275.84356 Z  M 302.26994 276.21166 L 304.11043 278.42025 L 302.26994 276.21166 Z  M 301.16564 277.68405 L 302.63804 279.52454 L 301.16564 277.68405 Z " fill-rule="evenodd" fill="rgb(166,167,200)"/><path d=" M 209.5092 279.15644 L 212.63804 279.34049 L 209.5092 279.52454 L 209.5092 279.15644 Z " fill="rgb(61,64,136)"/><path d=" M 277.23926 283.20552 L 282.94479 283.38957 L 277.23926 283.57362 L 277.23926 283.20552 Z " fill="rgb(166,167,200)"/><path d=" M 273.92638 286.15031 L 278.89571 286.33436 L 273.92638 286.5184 L 273.92638 286.15031 Z  M 281.65644 286.15031 L 286.62577 286.33436 L 281.65644 286.5184 L 281.65644 286.15031 Z " fill-rule="evenodd" fill="rgb(60,63,136)"/></g></svg>