<?xml version="1.0" standalone="no"?>
<!DOCTYPE svg PUBLIC "-//W3C//DTD SVG 20010904//EN"
 "http://www.w3.org/TR/2001/REC-SVG-20010904/DTD/svg10.dtd">
<svg version="1.0" xmlns="http://www.w3.org/2000/svg"
 width="558.000000pt" height="558.000000pt" viewBox="0 0 558.000000 558.000000"
 preserveAspectRatio="xMidYMid meet">
<metadata>
Created by potrace 1.11, written by Peter Selinger 2001-2013
</metadata>
<g transform="translate(0.000000,558.000000) scale(0.100000,-0.100000)"
fill="#000000" stroke="none">
<path d="M3821 5436 l-284 -143 -92 23 c-229 55 -435 78 -625 70 -778 -35
-1340 -232 -1753 -614 -46 -42 -127 -117 -180 -165 -389 -355 -644 -881 -753
-1552 -78 -477 10 -1085 221 -1522 60 -123 251 -415 352 -535 35 -43 88 -98
117 -123 84 -72 107 -126 136 -325 21 -144 91 -294 151 -325 15 -8 50 -15 76
-15 62 0 117 -16 164 -47 33 -22 45 -24 86 -18 65 9 93 26 142 81 l41 47 88
-41 c237 -110 530 -184 855 -216 333 -32 790 23 1147 140 157 51 379 158 495
238 l80 55 13 -39 c15 -44 69 -96 109 -106 101 -26 341 105 373 202 13 37 15
257 4 326 -9 56 12 105 56 133 45 29 140 147 239 300 218 335 338 684 397
1160 15 124 16 161 5 327 -34 536 -152 978 -352 1325 -120 210 -217 328 -446
545 -210 200 -364 315 -571 425 -48 25 -89 48 -91 49 -5 4 59 272 86 356 24
76 27 119 8 124 -5 2 -138 -61 -294 -140z m257 62 c-15 -75 -182 -754 -198
-809 -11 -36 -20 -77 -20 -92 0 -22 -19 -41 -117 -115 -65 -49 -126 -99 -137
-110 -29 -33 -79 -45 -156 -37 -52 5 -73 12 -89 29 -20 21 -20 24 -6 36 21 18
36 47 46 88 16 71 -66 106 -176 77 -139 -36 -227 -101 -279 -206 -20 -39 -36
-80 -36 -91 0 -22 -37 -38 -65 -28 -26 9 -43 3 -69 -25 -12 -13 -67 -64 -124
-115 -146 -131 -432 -453 -417 -469 3 -2 54 43 113 101 99 98 111 107 156 113
55 9 94 -1 110 -28 9 -15 5 -24 -26 -50 -53 -47 -133 -141 -190 -225 l-49 -73
-40 51 c-23 27 -45 50 -50 50 -16 0 -10 -57 10 -81 10 -13 25 -37 33 -54 14
-29 13 -34 -35 -135 l-50 -105 -23 60 c-34 94 -34 99 4 103 37 4 40 17 16 65
-23 45 -43 66 -82 84 -45 21 -141 160 -117 169 9 4 25 -2 38 -15 13 -11 37
-26 55 -32 29 -10 35 -8 70 19 64 51 281 287 271 296 -2 2 -14 8 -26 15 -20
10 -24 6 -56 -45 l-34 -56 -6 77 -7 77 88 101 c280 323 282 325 341 342 30 9
69 55 289 343 l254 333 386 194 c213 107 391 194 396 194 4 1 6 -9 4 -21z
m-978 -179 c93 -10 274 -44 314 -59 18 -6 12 -12 -42 -39 -34 -17 -80 -47
-101 -66 -20 -19 -145 -174 -276 -345 -155 -201 -245 -310 -256 -310 -29 0
-66 -21 -78 -44 -7 -11 -25 -30 -40 -41 -15 -11 -51 -48 -79 -81 -45 -55 -56
-62 -98 -69 -85 -12 -295 -74 -423 -125 -223 -88 -437 -220 -590 -365 -120
-113 -289 -303 -346 -390 -151 -226 -254 -518 -301 -850 -28 -196 -26 -502 4
-655 24 -122 50 -218 84 -313 l21 -58 -25 -27 c-55 -58 -62 -114 -26 -184 20
-37 23 -60 25 -168 1 -69 5 -144 8 -166 4 -24 3 -44 -3 -48 -6 -3 -45 31 -88
77 -352 373 -551 878 -611 1548 -19 215 -13 319 33 581 87 499 257 900 518
1225 66 81 325 335 443 432 341 284 870 486 1439 551 89 10 351 4 494 -11z
m988 -326 c103 -56 258 -158 352 -231 102 -79 388 -366 475 -477 312 -399 480
-918 511 -1577 5 -110 3 -173 -11 -273 -56 -428 -175 -793 -355 -1098 -56 -96
-174 -256 -246 -336 l-49 -53 -97 126 c-54 70 -98 132 -98 137 0 6 18 41 40
79 129 221 207 510 232 865 10 139 9 177 -6 290 -63 481 -239 893 -497 1169
-105 113 -277 260 -394 338 -105 71 -309 174 -424 214 -45 16 -81 32 -81 35 0
3 26 23 58 44 95 63 233 168 313 238 72 62 77 69 83 117 4 28 15 73 25 98 10
26 33 111 51 190 19 78 38 142 43 142 5 0 39 -17 75 -37z m-730 -476 c22 -23
-10 -76 -59 -95 -40 -15 -52 -32 -24 -32 29 0 65 -47 65 -83 0 -70 -37 -83
-134 -48 -82 31 -119 23 -48 -10 50 -23 52 -25 38 -44 -14 -19 -15 -19 -131 9
l-116 29 7 31 c10 49 55 124 95 161 93 84 260 128 307 82z m92 -226 c22 -6 12
-16 -110 -111 -74 -57 -175 -135 -224 -173 -49 -39 -86 -63 -83 -53 4 9 10 54
13 99 4 45 11 88 17 95 7 9 27 11 71 6 55 -5 63 -3 86 19 14 13 31 22 37 20 6
-2 30 1 53 7 36 10 45 18 61 56 20 45 29 49 79 35z m-428 -99 c20 -20 -9 -52
-50 -53 l-37 -1 35 -12 c28 -10 36 -18 38 -44 3 -30 2 -31 -45 -34 l-48 -3 38
-19 c50 -26 51 -56 1 -56 l-35 0 60 -57 c33 -32 85 -74 116 -93 85 -53 182
-190 249 -352 39 -95 70 -197 62 -205 -2 -3 -31 -6 -64 -7 -40 -2 -73 -10
-103 -27 l-44 -24 -44 22 c-52 26 -120 38 -158 28 -25 -7 -21 -9 34 -21 70
-15 143 -49 143 -66 0 -6 -12 -27 -26 -46 -25 -32 -30 -34 -68 -28 -22 4 -73
22 -112 41 -60 29 -73 40 -80 67 -10 32 -11 33 -68 34 -63 0 -75 10 -76 59 0
23 -3 27 -10 15 -6 -8 -7 -33 -4 -56 l6 -41 -69 -6 c-153 -15 -324 -78 -412
-153 l-43 -38 7 35 c11 53 74 216 113 294 90 180 191 309 360 457 108 94 127
115 124 136 -2 17 4 31 19 42 18 14 20 20 10 38 -13 25 -15 62 -2 62 5 0 12
14 16 31 9 38 30 79 47 91 17 11 106 4 120 -10z m-182 3 c0 -3 -7 -17 -16 -30
-9 -14 -14 -34 -11 -45 3 -12 -1 -23 -10 -29 -12 -6 -15 -18 -11 -42 4 -22 1
-42 -8 -54 -8 -10 -14 -33 -14 -50 0 -22 -9 -40 -30 -60 -37 -35 -75 -37 -168
-8 l-63 19 155 152 c138 134 176 166 176 147z m-556 -327 c3 -13 6 -32 6 -44
0 -22 -76 -108 -122 -138 -25 -17 -28 -16 -62 6 -20 13 -36 28 -36 33 0 22 32
55 54 55 14 0 42 20 75 55 57 60 75 67 85 33z m-144 -574 c32 -87 56 -161 54
-163 -6 -7 -104 63 -177 126 -128 111 -256 287 -236 325 9 16 22 12 156 -55
l146 -74 57 -159z m-319 119 c23 -32 54 -71 68 -86 l26 -28 -23 -18 -23 -17
25 -44 c43 -75 31 -120 -30 -120 -31 0 -72 25 -106 65 -22 26 -22 30 1 63 27
38 35 96 17 111 -23 19 -36 4 -36 -43 0 -48 -10 -60 -57 -71 -38 -8 -45 -35
-9 -35 15 0 33 -12 49 -34 15 -19 41 -49 59 -67 35 -34 37 -55 11 -96 -24 -36
-53 -27 -121 38 -60 56 -63 62 -48 78 18 20 21 47 5 57 -14 8 -92 -73 -84 -86
4 -6 12 -9 20 -8 18 4 155 -140 155 -163 0 -29 -36 -59 -71 -59 -23 0 -50 16
-104 60 -72 59 -73 60 -68 100 3 22 2 40 -2 40 -13 0 -94 -88 -87 -94 3 -3 16
-6 29 -6 14 0 55 -26 104 -66 66 -55 79 -70 73 -88 -16 -53 -84 -62 -141 -18
-42 31 -104 122 -129 188 l-17 45 41 42 c36 37 42 48 39 82 l-2 39 48 7 c67
10 77 21 77 88 1 77 14 91 83 91 54 0 56 1 62 33 13 60 31 77 80 77 43 0 46
-2 86 -57z m207 -212 c36 -29 42 -40 41 -70 0 -46 -20 -102 -39 -112 -8 -4
-36 -17 -62 -29 -37 -17 -53 -32 -74 -71 -29 -53 -40 -57 -106 -38 -50 13 -49
28 5 63 17 10 37 38 49 66 17 41 25 49 53 54 18 4 41 16 51 27 25 28 23 92 -4
129 -27 35 -11 58 22 32 12 -9 41 -32 64 -51z m1476 -19 c25 -12 47 -29 51
-41 5 -17 15 -21 45 -21 44 0 61 -23 30 -40 -35 -19 -22 -30 33 -30 56 0 77
-12 77 -43 0 -33 42 -95 72 -108 33 -13 48 -36 48 -73 0 -24 -3 -26 -45 -26
-125 0 -357 -42 -455 -82 -35 -14 -35 -15 -12 -27 27 -15 313 0 481 25 86 13
106 13 112 2 14 -21 11 -24 -31 -37 -21 -6 -46 -19 -55 -27 -15 -15 -18 -15
-35 1 -15 14 -33 17 -90 13 -83 -4 -103 -19 -92 -63 5 -19 24 -40 49 -58 35
-23 43 -35 52 -78 21 -97 8 -145 -20 -76 -7 17 -40 71 -72 120 -46 69 -63 87
-82 87 -13 0 -26 -4 -29 -8 -3 -5 8 -89 24 -187 16 -99 28 -181 26 -182 -2 -2
-22 41 -46 94 -24 54 -50 106 -59 116 -10 12 -14 38 -13 87 1 97 -13 112 -91
101 -31 -4 -59 -5 -62 -3 -8 9 -6 75 6 138 14 77 55 163 83 173 30 12 54 42
56 71 4 49 2 51 -36 44 -28 -5 -40 -2 -59 16 l-23 22 -11 -21 c-7 -12 -18 -21
-26 -21 -19 0 -19 5 1 35 15 23 15 25 -1 31 -27 11 -69 -28 -78 -72 -5 -21
-15 -54 -23 -72 -8 -18 -12 -37 -9 -42 3 -5 -1 -22 -9 -38 -21 -41 -7 -57 50
-54 l47 2 -6 -41 c-8 -58 -31 -89 -68 -89 -17 0 -28 4 -25 9 10 15 -20 45 -38
38 -49 -19 -19 -79 48 -96 l46 -11 0 -90 c0 -83 -1 -90 -20 -90 -13 0 -20 7
-20 20 0 21 -15 27 -25 10 -12 -19 -25 -10 -25 18 0 16 -7 37 -15 48 -25 32
-35 0 -35 -112 0 -117 22 -257 55 -352 24 -69 33 -54 15 23 -16 68 -32 225
-25 256 6 27 10 29 50 29 24 0 46 -3 48 -7 3 -5 6 -35 8 -68 4 -53 2 -60 -16
-63 -30 -6 -45 -22 -45 -48 0 -26 31 -44 76 -44 30 0 48 -37 58 -117 5 -40 3
-55 -9 -67 -24 -23 -44 -20 -55 9 -14 37 -34 32 -26 -7 11 -57 39 -69 98 -44
12 6 22 -2 40 -33 23 -40 38 -52 38 -29 0 6 -11 43 -24 82 -40 117 -75 325
-76 449 0 34 2 37 28 37 28 0 32 -8 142 -257 63 -142 138 -309 167 -370 49
-104 55 -113 80 -113 53 0 56 9 51 119 l-5 101 23 -56 c46 -113 92 -158 123
-120 20 24 14 88 -22 236 -36 145 -69 331 -85 468 -7 62 -6 74 7 82 49 26 101
-26 101 -99 0 -23 18 -115 41 -204 22 -89 51 -212 64 -274 26 -124 56 -203 78
-203 17 0 21 20 38 178 17 159 30 151 69 -43 12 -61 23 -117 26 -126 4 -14
-11 -17 -108 -22 -149 -7 -253 -32 -351 -81 -87 -44 -110 -67 -89 -88 10 -10
19 -10 45 1 92 38 201 63 322 72 194 16 206 7 169 -134 -45 -175 -133 -258
-257 -244 -67 8 -215 80 -289 141 -32 26 -58 46 -59 44 0 -2 -2 -23 -4 -46 -2
-24 -6 -47 -10 -50 -11 -11 -98 42 -156 96 -38 35 -70 78 -96 127 -21 41 -42
70 -46 66 -12 -12 34 -119 81 -187 45 -67 137 -158 170 -168 12 -4 22 -12 22
-17 0 -20 19 -7 39 26 11 20 27 38 34 41 8 3 37 -11 66 -31 30 -19 64 -38 77
-41 29 -8 30 -13 2 -60 -14 -24 -23 -32 -26 -23 -3 8 -9 20 -15 27 -14 18 -36
-15 -37 -55 0 -27 4 -33 20 -33 47 0 77 27 90 80 7 27 13 50 15 50 1 0 22 -7
45 -15 23 -8 56 -15 72 -15 26 0 29 -3 26 -27 -2 -23 -9 -29 -37 -33 -19 -3
-36 -10 -38 -16 -6 -18 23 -41 60 -48 64 -12 219 66 190 95 -9 9 -19 6 -43
-15 -21 -17 -43 -26 -66 -26 -31 0 -34 2 -34 30 0 17 6 32 13 35 6 2 37 11 68
19 31 9 80 32 109 52 l53 36 -7 -53 c-11 -79 -43 -145 -94 -189 -52 -46 -93
-60 -180 -60 -114 0 -299 78 -425 178 -114 92 -264 294 -336 455 -153 340
-212 881 -131 1198 36 139 114 289 151 289 11 0 16 5 13 13 -3 9 9 20 33 30
49 21 156 15 217 -11z m-659 4 c1 0 6 -14 13 -30 10 -21 10 -32 1 -42 -12 -15
-9 -53 11 -122 10 -33 10 -45 0 -57 -14 -17 -69 -19 -121 -5 l-37 10 19 37
c15 30 18 50 13 102 -5 58 -4 69 16 94 19 24 27 27 54 21 17 -3 31 -7 31 -8z
m-132 -84 c-3 -78 -15 -102 -45 -95 -13 3 -33 15 -46 26 -23 21 -76 106 -70
112 11 11 80 23 118 22 l45 -2 -2 -63z m-533 -23 c0 -3 -9 -32 -20 -64 -12
-36 -17 -62 -11 -69 5 -6 12 -27 16 -47 l7 -36 -48 -8 c-54 -8 -92 -25 -144
-65 -60 -47 -160 -68 -160 -35 0 30 30 74 52 77 15 2 32 21 53 57 24 42 38 56
68 66 59 20 85 50 98 114 6 31 13 59 16 63 4 8 73 -42 73 -53z m808 14 c23 -8
42 -17 42 -20 0 -14 -56 -69 -80 -80 -38 -16 -50 -1 -50 62 0 57 6 69 29 59 9
-3 35 -13 59 -21z m-495 -1 c15 -17 14 -20 -14 -46 -16 -16 -39 -46 -49 -67
-24 -47 -14 -79 37 -110 18 -11 33 -26 33 -34 0 -7 -11 -38 -25 -69 l-25 -57
21 -30 c18 -26 20 -38 14 -97 -7 -77 3 -99 50 -103 17 -2 45 5 63 15 46 24
104 18 117 -11 12 -28 35 -30 35 -4 0 28 22 32 87 15 92 -23 163 -63 163 -90
0 -62 -178 -144 -309 -144 -46 0 -128 38 -167 78 -83 82 -162 249 -185 390 -6
39 -16 72 -21 72 -5 0 -19 -12 -32 -27 -41 -47 -70 -15 -82 90 -5 44 -2 57 18
87 24 35 39 39 85 25 23 -7 36 15 37 65 1 18 12 31 41 47 48 27 86 29 108 5z
m61 -77 c3 -13 3 -37 0 -53 -6 -29 -4 -31 32 -37 61 -10 62 -11 19 -24 -83
-23 -124 -9 -138 46 -3 15 4 36 24 63 31 43 53 45 63 5z m-227 -12 c-3 -10 -5
-4 -5 12 0 17 2 24 5 18 2 -7 2 -21 0 -30z m763 11 c0 -16 -23 -44 -35 -44
-19 0 -19 9 2 32 16 17 33 24 33 12z m216 -40 c14 -4 23 -11 20 -18 -3 -6 -10
-27 -17 -48 -9 -28 -18 -37 -39 -40 -49 -7 -68 15 -34 43 8 7 13 21 10 32 -7
27 4 49 21 43 8 -4 26 -9 39 -12z m-292 -74 c32 -12 36 -50 6 -50 -25 0 -80
27 -80 39 0 22 32 27 74 11z m-141 -23 c44 -19 47 -32 8 -51 -39 -21 -89 -22
-133 -2 -21 9 -47 16 -58 16 -23 0 -35 22 -26 46 6 14 19 16 89 12 45 -3 99
-13 120 -21z m-1510 -44 c52 -73 57 -85 42 -107 -27 -37 -115 15 -130 77 -6
22 -2 34 16 53 12 13 26 24 30 24 4 0 23 -21 42 -47z m424 2 c21 -6 21 -7 7
-49 -30 -88 -114 -127 -199 -92 l-40 17 33 26 c19 14 37 35 42 47 5 14 23 27
49 34 22 7 43 17 46 23 4 5 14 8 23 5 10 -2 27 -7 39 -11z m-543 -60 c26 -50
39 -64 79 -82 26 -13 47 -29 47 -36 0 -26 -31 -56 -77 -71 -80 -27 -133 -18
-178 30 -59 64 -7 230 69 222 25 -3 34 -12 60 -63z m936 10 c0 -14 12 -37 26
-52 20 -20 32 -24 59 -20 41 7 52 -13 29 -48 -14 -22 -14 -23 5 -18 16 4 21
-2 30 -34 19 -68 10 -78 -55 -62 -53 12 -64 11 -64 -4 0 -7 22 -20 50 -30 l50
-18 -26 -42 c-15 -23 -28 -44 -30 -46 -3 -3 -17 8 -32 22 -27 26 -29 27 -44
10 -9 -10 -19 -28 -22 -40 -7 -20 -4 -23 23 -23 24 0 36 -7 51 -32 26 -43 9
-52 -47 -25 -55 27 -66 16 -59 -60 l5 -53 -88 0 c-48 0 -113 -7 -146 -15 -47
-13 -60 -13 -67 -3 -14 24 -8 47 22 81 37 42 38 51 5 43 -35 -9 -43 -2 -37 30
3 17 15 31 36 40 17 7 25 13 18 14 -7 0 -24 11 -37 25 -38 37 -35 114 8 197
28 54 37 63 62 65 27 3 28 2 12 -10 -53 -35 -52 -31 -27 -65 l22 -30 -33 -31
c-19 -17 -37 -31 -41 -31 -18 0 -6 -18 16 -24 13 -3 31 -8 39 -11 10 -4 19 8
32 42 25 69 86 170 140 231 39 44 52 52 81 52 30 0 34 -3 34 -25z m458 -18 c2
-16 -5 -34 -16 -45 -17 -17 -24 -18 -56 -8 -44 13 -45 24 -7 65 24 26 33 30
53 22 14 -5 24 -18 26 -34z m232 3 c30 -19 -3 -32 -56 -22 -46 9 -48 10 -24
20 31 14 61 14 80 2z m-140 -10 c16 -10 12 -12 -42 -24 -27 -6 -39 10 -21 27
9 10 46 8 63 -3z m238 -38 c13 -20 13 -22 -7 -22 -46 0 -79 39 -54 63 9 9 43
-14 61 -41z m-139 -23 c24 -8 31 -16 26 -28 -4 -9 -9 -37 -12 -62 l-5 -46 -92
5 c-50 2 -92 5 -93 7 -8 6 -12 92 -5 103 5 7 26 16 47 19 35 6 38 4 30 -13
-14 -34 -18 -64 -7 -64 5 0 15 20 22 45 14 50 28 55 89 34z m-1289 -23 c19
-24 109 -40 153 -28 35 10 37 9 37 -14 0 -34 -39 -47 -114 -40 -76 8 -106 27
-106 66 0 33 11 38 30 16z m1074 -60 l2 -64 -43 -21 c-29 -14 -44 -17 -49 -9
-12 20 -9 115 5 132 13 15 71 37 80 30 2 -2 4 -32 5 -68z m353 32 c18 -10 35
-28 38 -38 9 -27 -11 -94 -34 -114 -19 -17 -21 -17 -60 5 -23 12 -43 31 -47
41 -5 17 11 110 23 131 6 10 40 0 80 -25z m-1349 -95 c34 -3 62 -9 62 -13 0
-16 -27 -28 -80 -33 -61 -7 -82 3 -95 42 -7 22 -5 23 21 17 16 -3 57 -9 92
-13z m2421 -34 c29 -32 51 -105 50 -168 -3 -140 -34 -143 -66 -6 -35 145 -39
195 -20 195 9 0 25 -10 36 -21z m-2546 -25 c38 -44 157 -43 202 2 10 10 23 13
37 8 21 -6 19 -11 -37 -60 -33 -30 -63 -54 -67 -54 -18 0 -6 -19 13 -22 20 -3
19 -6 -15 -48 -19 -24 -33 -46 -31 -48 2 -3 33 14 69 36 l64 41 7 -42 c9 -62
25 -108 47 -140 21 -30 18 -40 -27 -79 -26 -23 -108 -48 -155 -48 -63 0 -184
96 -211 168 -23 59 -28 131 -14 180 16 51 68 132 86 132 5 0 20 -12 32 -26z
m855 -69 c-47 -134 -21 -299 54 -345 45 -27 89 -25 194 10 83 28 90 29 101 13
15 -20 17 -77 3 -103 -5 -10 -20 -20 -33 -24 -13 -3 -29 -17 -35 -31 -18 -40
-14 -124 8 -174 l20 -43 -22 14 c-13 8 -104 63 -203 123 -99 60 -188 115 -197
123 -14 11 -18 30 -18 78 0 54 3 65 24 81 18 15 27 40 43 119 17 85 69 231 79
222 1 -2 -7 -30 -18 -63z m169 -131 c20 -16 41 -32 47 -36 6 -4 3 -16 -7 -31
-15 -24 -15 -25 5 -30 13 -4 32 2 49 14 29 21 56 24 78 10 21 -13 -3 -65 -36
-80 -37 -17 -142 -41 -180 -41 -98 0 -137 133 -87 292 l16 48 39 -59 c21 -32
56 -72 76 -87z m495 0 c3 -27 0 -39 -16 -50 -25 -17 -83 -18 -89 -1 -5 13 70
86 89 87 7 0 14 -16 16 -36z m-772 -49 c29 -35 -41 -98 -73 -66 -9 9 -7 20 7
46 20 37 45 45 66 20z m633 -16 c7 -27 -33 -69 -67 -69 -13 0 -30 -2 -38 -5
-7 -3 -20 -1 -28 5 -33 21 48 83 116 89 7 1 14 -8 17 -20z m150 -26 c3 -5 8
-38 12 -76 l7 -67 -38 -16 c-22 -9 -72 -19 -111 -22 -69 -4 -73 -4 -81 19 -25
68 81 167 180 169 15 0 29 -3 31 -7z m-261 -123 c-3 -43 33 -96 69 -104 26 -5
27 -7 17 -40 -9 -28 -8 -44 5 -76 15 -39 15 -40 -13 -70 -27 -29 -33 -31 -92
-28 -74 4 -84 19 -42 64 14 16 35 46 46 67 19 38 19 39 -1 81 -21 43 -26 82
-15 124 10 34 29 20 26 -18z m317 -152 c12 -51 37 -130 55 -176 33 -81 33 -83
13 -93 -11 -6 -45 -13 -76 -16 -45 -3 -63 0 -88 16 -28 17 -33 27 -33 59 0 46
19 75 60 92 31 13 40 30 16 30 -7 0 -30 -7 -50 -15 -26 -11 -42 -13 -55 -5
-19 10 -41 58 -41 90 0 44 86 109 146 110 l32 0 21 -92z m-355 0 c-20 -65 -64
-91 -64 -39 0 34 23 61 51 61 17 0 19 -4 13 -22z m206 -273 c11 -17 31 -37 45
-43 34 -16 32 -36 -7 -65 -73 -55 -195 -104 -310 -126 -43 -8 -49 -6 -71 18
-30 31 -52 75 -60 117 l-6 31 142 67 c78 38 157 75 176 84 18 9 39 25 45 35 9
15 12 9 19 -34 4 -29 16 -66 27 -84z m-1687 66 c22 -8 25 -17 30 -86 4 -59 14
-94 41 -151 40 -85 61 -176 46 -204 -6 -10 -10 -35 -10 -54 0 -31 5 -38 45
-62 25 -14 45 -27 45 -29 0 -2 -3 -10 -6 -19 -14 -37 -124 -1 -124 40 0 8 -7
28 -15 44 -14 27 -17 29 -43 18 -15 -6 -90 -12 -167 -13 -77 -2 -151 -4 -165
-6 -21 -3 -27 2 -41 41 -10 25 -18 71 -18 103 -1 72 17 102 98 156 56 38 131
113 131 130 0 5 9 29 20 55 20 45 22 46 65 46 24 0 55 -4 68 -9z m1112 -61
c39 -6 87 -15 108 -21 31 -8 36 -13 27 -24 -7 -8 -10 -33 -8 -57 3 -42 3 -42
-37 -51 -22 -4 -59 -5 -82 -2 -37 5 -44 11 -62 49 -12 23 -21 50 -21 59 0 21
-19 22 -27 1 -8 -21 12 -86 38 -118 18 -22 28 -26 74 -26 30 0 65 4 79 10 29
10 76 -2 76 -20 0 -14 -78 -49 -108 -50 -38 0 -85 27 -151 86 -73 66 -96 121
-66 154 21 23 54 25 160 10z m-213 -37 c-8 -57 71 -156 172 -215 41 -24 45
-30 37 -51 -17 -44 19 -166 72 -244 20 -30 26 -33 77 -33 30 0 72 5 93 11 22
6 41 8 44 5 3 -3 -6 -19 -20 -36 -15 -17 -29 -46 -33 -65 -12 -65 17 -113 108
-176 l23 -16 -37 -37 c-30 -30 -43 -36 -79 -36 -52 0 -130 20 -179 45 -67 34
-100 68 -147 147 -54 90 -132 182 -174 203 -16 9 -55 15 -93 15 -71 0 -84 8
-106 60 -10 25 -15 29 -22 17 -11 -21 1 -73 21 -91 9 -8 42 -19 73 -25 106
-19 182 -73 194 -137 5 -28 1 -41 -20 -69 -22 -28 -34 -35 -62 -35 -28 0 -38
-6 -52 -29 -15 -27 -20 -29 -57 -24 -30 4 -44 1 -54 -11 -7 -9 -27 -16 -43
-16 -16 0 -49 -13 -74 -30 -46 -33 -54 -27 -34 24 14 38 3 55 -39 62 -32 5
-40 12 -50 41 -11 29 -23 40 -62 56 -44 19 -49 24 -49 54 0 26 -6 36 -30 48
-24 13 -30 22 -30 49 0 18 -7 39 -15 46 -23 19 -18 37 20 75 43 44 64 108 46
138 -12 18 -11 22 5 34 11 8 19 27 20 48 0 26 10 44 41 73 26 26 47 59 58 92
l17 52 55 -58 c52 -57 67 -93 49 -122 -3 -6 -2 -13 3 -16 17 -11 39 5 52 37
37 88 155 170 239 165 40 -3 45 -5 42 -25z m1069 -45 c23 -46 20 -50 -41 -68
-85 -24 -143 -1 -138 53 3 30 6 32 65 42 35 7 66 14 69 18 11 10 23 -2 45 -45z
m1209 -36 c39 -7 45 -11 48 -35 3 -21 -1 -27 -16 -27 -28 0 -57 -29 -75 -75
-18 -48 -7 -84 37 -125 25 -23 27 -29 21 -81 -9 -77 9 -115 82 -173 89 -69
140 -178 144 -308 3 -83 -7 -92 -101 -84 -41 3 -84 7 -95 8 -34 5 -22 -26 15
-39 44 -15 155 -16 182 -2 24 13 74 -4 87 -30 17 -33 -6 -76 -52 -98 -23 -11
-68 -44 -99 -72 -87 -79 -144 -90 -214 -39 -39 28 -44 36 -44 72 -1 52 -20
107 -54 150 -23 31 -26 43 -26 119 0 72 -3 88 -22 113 -16 20 -23 42 -23 75 0
56 17 90 56 113 16 10 29 26 29 37 0 25 -12 24 -28 -1 -16 -26 -59 -26 -67 -1
-4 13 5 34 29 65 62 82 79 142 84 308 l4 147 27 -5 c14 -3 46 -8 71 -12z
m-1391 -61 l33 -27 -17 -59 c-9 -33 -30 -86 -46 -118 -30 -59 -31 -59 -66 -52
-70 13 -94 45 -74 99 16 41 14 76 -5 76 -19 0 -44 -58 -44 -103 0 -40 46 -89
103 -107 38 -12 48 -35 25 -58 -22 -22 -57 -12 -105 31 -27 23 -64 55 -82 70
l-34 28 20 42 c34 69 100 135 172 172 36 19 71 34 76 34 6 0 25 -12 44 -28z
m251 -23 c24 -40 24 -44 4 -52 -27 -10 -53 3 -60 30 -15 58 25 73 56 22z m-90
-26 c0 -41 14 -62 41 -62 9 0 19 -9 22 -21 6 -24 -7 -171 -17 -188 -4 -6 -22
-11 -40 -11 -50 0 -98 -19 -94 -39 5 -25 78 -26 133 -2 l45 20 0 -23 c0 -35
-32 -57 -91 -63 -74 -7 -137 11 -149 43 -23 59 -6 194 40 317 17 46 26 56 48
60 62 9 62 9 62 -31z m1310 -207 c19 -50 38 -75 115 -150 115 -112 134 -155
142 -317 7 -128 3 -142 -31 -127 -23 11 -25 16 -20 53 14 103 -58 268 -165
375 l-74 74 6 64 c6 63 6 65 -28 99 -43 43 -45 77 -7 117 l27 28 7 -78 c3 -43
16 -105 28 -138z m-1891 150 c11 -3 44 1 72 9 70 21 76 20 51 -7 -26 -28 -52
-88 -52 -122 0 -30 -28 -44 -107 -52 -41 -5 -53 -3 -53 8 0 24 -20 83 -34 102
-8 10 -20 15 -30 11 -21 -8 -13 -62 18 -119 19 -36 26 -40 63 -43 24 -2 70 6
111 20 67 23 92 25 92 9 0 -14 -75 -49 -130 -61 -30 -6 -77 -10 -105 -8 -49 3
-50 4 -77 58 -17 33 -31 80 -34 116 l-7 61 74 35 74 35 27 -23 c16 -12 37 -25
47 -29z m746 -22 c10 -16 52 -63 93 -105 l75 -78 -34 -14 c-19 -7 -53 -16 -77
-19 -35 -4 -48 -1 -67 16 -13 12 -25 29 -26 37 -5 46 2 190 10 190 5 0 17 -12
26 -27z m-2345 -209 c-36 -14 -69 -29 -74 -34 -22 -22 -35 -11 -25 19 12 33
25 38 109 39 l55 1 -65 -25z m1794 6 c14 -5 32 -23 41 -41 16 -30 19 -31 63
-26 34 4 52 12 67 32 l22 26 11 -39 c26 -85 5 -158 -57 -199 -55 -37 -84 -29
-238 63 -64 38 -55 -17 11 -65 25 -17 74 -39 111 -49 66 -17 66 -17 105 6 43
24 58 16 39 -20 -36 -70 -74 -82 -153 -48 -106 45 -206 126 -206 166 0 38 37
102 90 155 53 53 56 54 94 39z m858 -67 l36 -24 4 -92 c2 -58 10 -105 20 -127
9 -19 24 -62 33 -95 35 -125 83 -194 166 -235 49 -25 63 -38 84 -80 l25 -50
-25 -6 c-14 -3 -31 -1 -39 5 -9 7 -33 9 -70 5 -53 -6 -56 -6 -56 15 0 41 -18
61 -55 61 -30 0 -35 3 -35 23 0 31 -27 67 -51 67 -15 0 -19 7 -19 34 0 18 -6
39 -14 45 -8 7 -18 26 -21 42 -7 31 -30 49 -65 49 -16 0 -20 6 -18 28 1 15 -4
38 -11 50 -11 21 -10 27 11 49 l23 25 -24 19 -23 19 23 18 c16 14 20 24 14 38
-10 25 -17 123 -10 152 6 27 -3 30 97 -35z m-2432 27 c11 -11 20 -33 20 -50 0
-29 -1 -29 -48 -27 -64 3 -160 -45 -227 -112 -27 -28 -53 -47 -58 -42 -4 4 -9
48 -10 97 l-2 88 30 15 c102 50 259 67 295 31z m2300 -34 c0 -23 -5 -47 -12
-54 -9 -9 -9 -18 0 -36 10 -23 8 -26 -20 -40 -17 -9 -36 -16 -43 -16 -14 0
-58 151 -47 161 11 11 106 37 115 32 4 -2 7 -23 7 -47z m-139 -95 l36 -120
-22 -21 c-42 -39 -123 -62 -235 -68 -86 -4 -108 -2 -118 11 -16 19 -33 77 -22
77 4 0 10 -9 13 -19 2 -10 13 -23 23 -29 27 -13 144 12 222 48 67 31 73 44 51
109 -18 50 -41 40 -37 -16 l3 -48 -70 -23 c-39 -12 -89 -25 -111 -29 -36 -5
-44 -2 -53 15 -7 13 -17 19 -26 16 -18 -7 -18 3 -1 76 l12 54 91 -3 c113 -3
147 11 164 69 19 62 39 38 80 -99z m-1919 57 c2 -13 0 -36 -4 -53 -7 -25 -4
-33 15 -50 13 -11 31 -32 40 -47 20 -33 50 -36 69 -9 18 25 33 15 41 -28 10
-47 24 -61 63 -61 19 0 34 -4 34 -9 0 -5 -11 -34 -25 -65 -14 -31 -25 -63 -25
-70 0 -11 -9 -12 -42 -4 -80 18 -123 44 -183 112 -32 36 -63 66 -68 66 -6 0
-8 -28 -5 -67 7 -84 42 -164 94 -216 41 -41 65 -51 110 -45 27 3 25 5 -31 35
-63 32 -87 63 -100 123 l-7 34 23 -17 c46 -34 95 -49 157 -50 35 -1 66 3 70 9
4 6 32 27 62 47 l55 37 3 -57 c4 -75 0 -90 -45 -147 -63 -81 -117 -93 -248
-57 -38 11 -71 18 -73 16 -2 -1 31 -21 73 -44 68 -37 75 -44 75 -72 0 -88 -91
-169 -190 -169 -24 0 -97 24 -109 36 -3 2 27 34 67 72 42 40 73 78 76 94 8 37
-8 36 -24 -1 -11 -29 -70 -88 -118 -119 -16 -11 -49 -16 -99 -16 l-75 -1 -34
39 c-36 42 -64 117 -64 172 0 45 42 160 101 274 54 105 84 145 115 154 19 6
21 0 32 -69 6 -41 21 -103 33 -137 20 -62 67 -153 74 -146 3 2 -9 45 -25 94
-16 50 -38 135 -49 190 -24 115 -18 130 41 119 30 -6 37 -12 47 -46 15 -49 62
-104 112 -130 79 -40 75 -20 -10 59 -84 78 -85 79 -85 128 1 74 47 150 56 92z
m-102 -33 c0 -28 -4 -35 -19 -35 -26 0 -44 25 -36 50 4 13 15 20 31 20 21 0
24 -5 24 -35z m2429 9 c32 -12 43 -24 52 -52 22 -70 82 -173 118 -202 19 -17
50 -33 68 -36 32 -6 33 -8 33 -55 0 -27 -4 -49 -10 -49 -42 0 -180 74 -180 97
0 36 -35 92 -80 128 -55 44 -76 94 -65 152 7 38 10 39 64 17z m370 -91 c9 -76
9 -89 -5 -105 -20 -21 -74 -33 -110 -24 -40 10 -144 124 -144 158 0 26 1 27
48 22 33 -4 63 1 102 15 95 34 96 34 109 -66z m-3045 -5 c-10 -13 -40 -47 -66
-76 -26 -29 -58 -75 -70 -103 -13 -27 -26 -49 -29 -49 -12 0 -16 48 -6 67 15
27 137 156 161 170 30 18 32 16 10 -9z m2699 -169 c18 -71 75 -120 175 -149
23 -7 42 -16 42 -19 0 -5 -14 -28 -35 -59 -5 -7 -114 40 -128 56 -23 25 -90
215 -75 210 7 -3 16 -20 21 -39z m-1023 11 c22 -11 60 -23 84 -26 38 -6 49 -3
81 22 l37 28 19 -23 c10 -12 34 -27 53 -32 46 -13 189 5 262 32 31 12 58 18
61 15 12 -12 4 -57 -17 -100 -30 -62 -175 -190 -238 -210 -104 -33 -104 -33
-153 29 -47 60 -79 71 -101 35 -18 -28 -25 -25 -48 20 -22 43 -39 48 -83 25
-35 -18 -42 -5 -32 57 3 24 8 63 10 88 4 62 4 60 15 60 6 0 29 -9 50 -20z
m1413 -29 c-8 -62 5 -128 33 -161 l26 -30 -38 -51 c-38 -52 -105 -93 -164
-101 -24 -3 -25 0 -28 56 -2 47 1 63 16 80 33 36 53 85 60 149 7 58 9 63 42
79 52 27 59 24 53 -21z m-3171 -58 c-45 -94 -41 -88 -48 -80 -15 15 59 157 82
157 2 0 -13 -35 -34 -77z m2493 -6 c8 -28 15 -61 15 -73 0 -17 9 -25 35 -34
22 -7 35 -18 35 -29 0 -27 27 -58 58 -64 23 -5 31 -14 40 -45 7 -22 19 -45 27
-52 24 -20 18 -34 -43 -92 -88 -84 -232 -148 -332 -148 -61 0 -133 57 -175
140 -11 20 -20 66 -23 108 -4 65 -3 72 14 72 30 1 97 34 136 69 l36 31 20 -32
c11 -18 36 -63 56 -100 49 -88 60 -94 28 -15 -14 34 -30 99 -35 144 l-11 81
39 56 c45 65 56 63 80 -17z m-1685 -232 c170 -103 416 -178 688 -210 168 -20
446 -20 549 0 l78 15 23 -27 c13 -16 39 -44 58 -65 l35 -36 -48 -10 c-205 -44
-563 -50 -803 -13 -268 41 -495 105 -689 196 -91 43 -101 51 -101 75 0 22 8
30 54 49 30 12 62 31 71 42 10 10 20 19 23 19 2 0 30 -16 62 -35z m1970 -113
c0 -10 5 -23 12 -30 8 -8 5 -14 -13 -21 -13 -5 -48 -19 -78 -30 -29 -12 -55
-20 -58 -18 -2 2 14 16 35 30 22 14 50 39 63 56 28 35 39 38 39 13z"/>
<path d="M3771 5220 c-83 -87 -151 -163 -151 -169 0 -30 89 10 110 49 6 12 9
29 5 38 -5 13 23 45 106 123 84 78 109 107 97 111 -11 5 -59 -39 -167 -152z"/>
<path d="M3425 5020 c-16 -16 -25 -33 -22 -37 7 -6 27 15 48 50 14 25 7 21
-26 -13z"/>
<path d="M3312 4933 c5 -26 35 -28 48 -4 10 19 8 21 -20 21 -25 0 -31 -4 -28
-17z"/>
<path d="M3422 4858 c-83 -88 -172 -192 -167 -196 2 -2 28 12 58 32 67 45 155
145 163 185 4 17 4 31 1 31 -3 0 -27 -24 -55 -52z"/>
<path d="M2770 4355 c-19 -19 -30 -35 -24 -35 5 0 22 16 37 35 36 45 30 45
-13 0z"/>
<path d="M2053 4992 c-62 -25 -113 -51 -113 -56 -1 -17 153 -540 161 -549 10
-12 163 28 227 59 39 19 59 37 78 71 26 42 27 49 21 146 -7 120 -32 202 -85
278 -41 59 -78 84 -137 92 -33 5 -61 -3 -152 -41z m175 -87 c28 -20 67 -88 82
-143 16 -62 14 -171 -3 -213 -14 -30 -23 -37 -64 -46 -26 -7 -51 -9 -54 -5
-12 13 -120 384 -114 391 12 12 70 29 100 30 17 1 40 -6 53 -14z"/>
<path d="M1605 4788 c-55 -27 -103 -52 -108 -57 -7 -7 11 -48 167 -374 l65
-138 41 21 c22 11 40 25 40 30 0 6 -16 42 -35 80 -19 38 -35 76 -35 85 0 30
46 15 95 -31 83 -76 83 -76 143 -57 29 9 52 22 52 29 0 20 -93 98 -159 133
l-61 32 25 43 c47 81 25 185 -48 222 -66 35 -76 34 -182 -18z m124 -75 c12
-10 26 -36 31 -58 8 -35 6 -45 -16 -77 -13 -21 -30 -38 -38 -38 -16 0 -90 165
-81 180 10 17 81 11 104 -7z"/>
<path d="M1250 4550 c-99 -47 -144 -117 -144 -230 -1 -93 23 -170 72 -235 148
-195 402 -64 402 206 0 107 -58 212 -142 255 -51 27 -136 28 -188 4z m147
-105 c11 -8 34 -36 49 -62 24 -41 29 -59 29 -120 0 -85 -21 -123 -77 -137 -47
-12 -80 -2 -124 37 -121 105 -85 297 55 297 26 0 56 -7 68 -15z"/>
<path d="M867 4178 c-42 -51 -77 -95 -77 -98 0 -8 319 -343 336 -353 15 -9 64
33 64 55 0 7 -31 49 -70 93 -38 44 -70 85 -70 90 0 6 18 32 40 59 41 50 48 74
28 94 -22 22 -50 12 -94 -35 l-44 -48 -35 37 c-19 21 -35 42 -35 47 0 5 20 34
45 64 42 52 43 55 26 71 -10 9 -22 16 -27 16 -6 0 -45 -41 -87 -92z"/>
<path d="M642 3849 c-35 -60 -61 -116 -59 -124 3 -7 15 -19 26 -24 17 -9 22
-7 38 19 10 17 23 28 29 26 6 -2 79 -54 162 -116 150 -111 151 -111 176 -94
14 9 26 22 26 28 0 7 -70 72 -155 145 -85 74 -155 136 -155 140 0 3 9 19 19
35 l20 30 -32 23 c-17 13 -31 23 -31 23 -1 0 -30 -50 -64 -111z"/>
<path d="M495 3540 c-9 -17 -13 -34 -11 -39 3 -5 61 -39 128 -76 68 -37 150
-83 184 -101 l60 -34 22 39 22 39 -91 52 c-152 86 -275 150 -287 150 -6 0 -19
-14 -27 -30z"/>
<path d="M404 3295 c-8 -20 -12 -40 -9 -44 2 -5 41 -23 85 -41 88 -36 90 -38
65 -111 -29 -83 -33 -84 -113 -55 -78 28 -92 23 -92 -29 0 -31 1 -32 158 -93
86 -33 164 -64 173 -67 11 -4 20 5 31 33 l16 40 -69 27 c-38 15 -71 30 -73 34
-4 6 47 147 57 157 2 2 32 -7 67 -21 35 -14 64 -25 65 -25 4 0 26 82 23 85 -3
2 -276 110 -341 134 -26 10 -29 9 -43 -24z"/>
<path d="M326 2708 c-3 -17 -3 -35 1 -38 5 -4 42 -19 83 -34 42 -15 81 -31 88
-35 8 -5 -18 -17 -70 -31 -98 -27 -110 -35 -106 -69 3 -21 15 -30 83 -57 43
-17 81 -36 82 -41 2 -5 -30 -20 -72 -33 -73 -23 -75 -24 -75 -56 l0 -32 101
24 c55 13 115 24 133 24 47 0 65 18 59 58 -5 30 -14 37 -91 76 l-85 43 64 12
c131 24 119 18 119 65 l0 43 -147 57 c-82 31 -151 56 -154 56 -4 0 -9 -14 -13
-32z"/>
<path d="M4033 4647 c-55 -121 -163 -394 -163 -410 0 -14 52 -57 69 -57 6 0
17 12 25 28 16 30 163 178 170 171 2 -2 -18 -65 -45 -139 l-49 -135 23 -17
c12 -10 27 -18 32 -18 6 0 96 85 200 190 l190 190 -26 26 c-32 31 -59 27 -89
-16 -24 -33 -150 -143 -157 -137 -2 3 19 61 47 131 27 69 50 128 50 131 0 2
-11 12 -25 21 -24 16 -26 14 -137 -76 -62 -51 -114 -88 -115 -83 -2 5 22 65
53 133 l55 125 -21 17 c-12 10 -27 18 -34 18 -6 0 -30 -42 -53 -93z"/>
<path d="M4433 4122 c-122 -70 -222 -129 -222 -132 0 -3 11 -18 26 -34 l25
-30 55 29 55 28 49 -50 50 -50 -27 -56 -28 -57 24 -25 c19 -20 26 -23 36 -13
18 19 264 427 264 438 0 12 -65 80 -76 80 -5 0 -109 -58 -231 -128z m132 -92
l-48 -81 -33 32 c-19 18 -33 37 -32 41 4 10 151 96 157 92 2 -2 -18 -40 -44
-84z"/>
<path d="M4700 3809 c-96 -78 -176 -144 -177 -147 -1 -4 8 -19 20 -35 l23 -27
64 50 c61 46 90 60 90 42 0 -4 -22 -45 -49 -92 -49 -84 -49 -85 -33 -113 18
-30 40 -52 46 -46 2 2 24 46 50 96 44 89 47 92 70 82 15 -7 43 -9 73 -4 38 5
56 15 84 45 67 71 59 159 -21 242 -26 27 -51 48 -56 48 -5 -1 -88 -64 -184
-141z m195 9 c37 -17 43 -53 14 -84 -37 -40 -56 -47 -94 -34 -34 11 -55 44
-38 60 8 8 86 68 90 69 1 1 14 -4 28 -11z"/>
<path d="M4905 3439 c-104 -50 -191 -92 -193 -94 -2 -2 4 -17 13 -34 l16 -31
47 24 c59 30 122 43 122 26 0 -6 -28 -43 -62 -81 l-61 -69 13 -41 c8 -22 17
-42 20 -44 4 -3 37 32 74 76 l67 80 26 -21 c55 -43 161 -8 194 64 22 50 23 78
5 141 -16 52 -51 95 -75 94 -9 0 -101 -41 -206 -90z m199 -51 c21 -30 20 -44
-4 -68 -33 -33 -75 -26 -100 16 -12 19 -21 36 -19 38 16 14 68 35 86 36 12 0
29 -10 37 -22z"/>
<path d="M5031 3080 c-79 -32 -148 -63 -154 -69 -11 -11 6 -61 21 -61 4 0 79
24 167 53 103 35 161 59 163 69 5 26 -17 68 -35 67 -10 0 -83 -27 -162 -59z"/>
<path d="M5050 2883 c-77 -33 -113 -95 -114 -194 0 -90 33 -147 106 -183 56
-28 84 -31 137 -16 110 31 162 190 102 308 -45 88 -142 124 -231 85z m137
-103 c44 -27 61 -86 37 -136 -18 -37 -58 -64 -97 -64 -23 0 -83 38 -99 62 -14
23 -8 70 13 105 34 55 90 68 146 33z"/>
<path d="M4986 2364 c-3 -9 -6 -26 -6 -39 0 -21 5 -24 43 -27 62 -4 62 -33 -1
-80 -43 -32 -48 -39 -44 -67 2 -17 6 -31 9 -31 2 0 19 11 37 25 18 14 36 25
40 25 3 0 19 -13 34 -30 25 -27 31 -29 75 -23 43 5 50 10 67 44 15 28 20 59
20 113 0 112 8 106 -140 106 -107 0 -129 -3 -134 -16z m182 -70 c18 -5 22 -13
22 -45 0 -46 -13 -56 -45 -35 -17 11 -25 26 -25 45 0 40 7 46 48 35z"/>
<path d="M4951 2034 c-50 -63 -33 -152 33 -174 36 -11 36 -11 84 41 37 40 53
51 67 46 15 -6 17 -15 12 -52 -8 -56 9 -68 28 -21 24 57 20 101 -12 122 -40
26 -68 19 -110 -26 -24 -28 -43 -40 -57 -38 -29 4 -33 44 -8 78 15 20 18 30 9
39 -16 16 -23 14 -46 -15z"/>
<path d="M2976 3808 c-8 -13 -18 -35 -21 -51 -6 -21 -4 -26 7 -22 9 4 22 -4
31 -19 18 -26 60 -51 107 -61 16 -4 37 -16 45 -28 14 -20 14 -23 -1 -34 -20
-14 -10 -33 17 -33 26 0 80 -115 87 -185 l5 -50 -22 19 c-21 19 -21 19 -21 -7
0 -15 5 -27 12 -27 6 0 20 -8 31 -17 20 -18 20 -17 13 48 -19 197 -112 375
-243 467 l-32 23 -15 -23z"/>
<path d="M2720 3761 c-55 -51 -63 -61 -51 -74 17 -22 7 -49 -41 -104 -51 -59
-113 -152 -106 -158 3 -3 24 23 46 57 47 71 166 183 186 175 8 -3 17 -21 22
-39 l7 -33 13 32 c21 49 30 169 14 188 -7 8 -15 15 -19 15 -3 -1 -35 -27 -71
-59z"/>
<path d="M2442 3418 c-25 -44 -40 -84 -51 -138 -5 -25 -12 -54 -16 -64 -8 -17
-5 -19 29 -13 51 8 92 35 77 50 -6 6 -11 20 -11 32 -1 17 -3 16 -16 -8 -8 -15
-20 -25 -26 -21 -15 9 -2 79 27 142 26 57 18 71 -13 20z"/>
<path d="M2902 3315 c0 -16 2 -22 5 -12 2 9 2 23 0 30 -3 6 -5 -1 -5 -18z"/>
<path d="M2588 3278 c-43 -15 -33 -26 15 -17 23 4 45 8 50 9 4 0 7 5 7 10 0
12 -36 12 -72 -2z"/>
<path d="M3420 3145 c-12 -15 -12 -19 5 -31 35 -26 44 -16 21 24 -11 22 -14
22 -26 7z"/>
<path d="M3334 1746 c-4 -9 5 -25 23 -40 l28 -25 18 21 c15 18 21 19 44 9 29
-13 36 -11 28 11 -8 20 -77 41 -86 27 -5 -8 -13 -8 -28 0 -17 10 -22 9 -27 -3z"/>
<path d="M3504 1576 c-8 -35 -32 -40 -55 -14 l-18 23 -1 -32 c0 -36 20 -52 55
-45 37 7 60 39 56 80 -2 22 -30 13 -37 -12z"/>
<path d="M2695 1651 c-79 -28 -95 -42 -95 -78 0 -25 8 -38 40 -63 36 -29 42
-30 79 -20 42 11 122 45 134 56 20 20 -12 19 -88 -3 -47 -14 -93 -22 -101 -19
-22 8 -40 54 -26 68 6 6 46 21 88 33 43 12 80 28 82 34 6 17 -56 13 -113 -8z"/>
<path d="M1221 1639 c-23 -67 -9 -180 24 -193 8 -3 6 12 -7 47 -18 47 -18 55
-5 114 15 66 7 86 -12 32z"/>
<path d="M1754 1120 c9 -60 50 -144 82 -165 40 -26 89 -30 138 -11 40 15 102
64 93 72 -2 2 -32 -7 -68 -21 -39 -16 -74 -23 -90 -20 -33 8 -78 54 -124 130
l-37 60 6 -45z"/>
<path d="M4370 568 c0 -7 18 -23 41 -36 31 -18 39 -27 33 -40 -11 -25 -10 -66
1 -72 6 -3 17 10 25 28 l14 34 67 -7 c43 -4 69 -3 73 4 10 16 -32 33 -85 33
-39 -1 -49 3 -54 19 -12 36 -115 69 -115 37z"/>
</g>
</svg>
